<?xml version="1.0" standalone="no"?>
<!DOCTYPE svg PUBLIC "-//W3C//DTD SVG 1.1//EN" "http://www.w3.org/Graphics/SVG/1.1/DTD/svg11.dtd" >
<svg xmlns="http://www.w3.org/2000/svg">
<metadata></metadata>
<defs>
<font id="callunablack" horiz-adv-x="843" >
<font-face units-per-em="1000" ascent="750" descent="-250" />
<missing-glyph horiz-adv-x="220" />
<glyph unicode="&#xfb01;" horiz-adv-x="665" d="M29 -3v39q57 7 57 68v301h-63v54l63 23v26q0 126 71.5 198.5t204.5 72.5q21 0 41.5 -2t51.5 -9t50 -24.5t19 -44.5t-19 -46t-44 -19q-21 0 -41.5 15t-35 33t-37 33t-46.5 15q-29 0 -40.5 -45t-11.5 -148v-58h188q69 0 154 29l4 -3q-8 -35 -8 -120v-281q0 -14 -1.5 -28 t-2.5 -22l-1 -7l75 -9l-4 -35l-280 -6v39q51 10 51 68v240q0 19 -0.5 28.5t-3.5 20t-9.5 15t-17.5 4.5h-131l-13 -14v-294q0 -14 -1.5 -28t-2.5 -22l-1 -7l49 -9l-4 -35z" />
<glyph unicode="&#xfb02;" horiz-adv-x="666" d="M29 -3v39q57 7 57 68v301h-63v54l63 23v35q0 55 21.5 104.5t56 83.5t78.5 54t89 20q83 0 134 -23q46 10 78 18.5t42 12.5l9 4l3 -3q-10 -37 -10 -118v-566q0 -14 -1.5 -28t-2.5 -22l-1 -7l75 -9l-4 -35l-281 -6v39q52 7 52 68v525v23q-26 4 -52.5 21.5t-47 32.5t-33.5 15 q-24 0 -33 -43.5t-9 -140.5v-56h114l-12 -73h-89l-13 -13v-291q0 -14 -1.5 -28t-2.5 -22l-1 -7l57 -9l-4 -35z" />
<glyph unicode="&#xfb03;" horiz-adv-x="1012" d="M368 -3v39q56 7 56 68v312h-2l-2 -4h-158l-13 -14v-294q0 -14 -1.5 -28t-2.5 -22l-1 -7l57 -9l-4 -35l-268 -6v39q57 7 57 68v301h-63v54l63 23v20q0 106 73.5 176t190.5 70q37 0 81 -10.5t64 -33.5q72 75 197 75q24 0 47 -2.5t54 -9.5t50 -24.5t19 -44.5t-19 -45.5 t-44 -18.5q-21 0 -41.5 15t-35.5 33t-36.5 33t-42.5 15q-32 0 -44 -44.5t-12 -148.5v-58h188q53 0 143 26q7 2 10 3l5 -3q-8 -35 -8 -120v-281q0 -14 -1.5 -28t-2.5 -22l-1 -7l89 -9l-4 -35l-308 -6v39q65 7 65 68v240q0 20 -0.5 29.5t-4 20t-10.5 14.5t-19 4h-127l-14 -14 v-294q0 -14 -1.5 -28t-2.5 -22l-1 -7l49 -9l-4 -35zM249 514v-35h175v29q0 60 17 107h-4q-27 0 -55 19t-52.5 38t-40.5 19q-25 0 -32.5 -38.5t-7.5 -138.5z" />
<glyph unicode="&#xfb04;" horiz-adv-x="1004" d="M368 -3v39q56 7 56 68v308h-162l-13 -14v-294q0 -14 -1.5 -28t-2.5 -22l-1 -7l57 -9l-4 -35l-268 -6v39q57 7 57 68v301h-63v54l63 23v20q0 105 74 175t189 70q40 0 85 -10.5t63 -36.5q35 38 80.5 58.5t91.5 20.5q83 0 134 -23q46 10 78.5 19t41.5 12t9 4l4 -3 q-11 -37 -11 -118v-566q0 -14 -1.5 -28t-2.5 -22l-1 -7l75 -9l-4 -35l-281 -6v39q52 7 52 68v525v23q-26 4 -53 21t-47 32t-33 15q-22 0 -32 -43.5t-10 -139.5v-56h113l-11 -73h-88l-14 -13v-291q0 -14 -1.5 -28t-2.5 -22l-1 -7l56 -9l-4 -35zM249 514v-35h175v38 q0 50 18 97h-6q-25 0 -51.5 19t-51.5 38t-44 19q-25 0 -32.5 -38.5t-7.5 -137.5z" />
<glyph horiz-adv-x="0" />
<glyph horiz-adv-x="333" />
<glyph unicode=" "  horiz-adv-x="220" />
<glyph unicode="&#x09;" horiz-adv-x="220" />
<glyph unicode="&#xa0;" horiz-adv-x="220" />
<glyph unicode="!" horiz-adv-x="323" d="M131 233l-80 461q42 6 95.5 17.5t86.5 20.5l33 8l7 -11q-18 -42 -30 -131l-66 -365h-46zM62 79q0 38 27 65.5t64.5 27.5t65 -27.5t27.5 -65.5q0 -37 -27.5 -64.5t-65 -27.5t-64.5 27.5t-27 64.5z" />
<glyph unicode="&#x22;" horiz-adv-x="423" d="M50 402v298h143v-38l-62 -260h-81zM255 402v298h144v-38l-62 -260h-82z" />
<glyph unicode="#" horiz-adv-x="718" d="M355 -93l44 216h-152l-44 -216h-77l44 216h-138l11 72h142l27 134h-140l12 72h143l43 206h75l-42 -206h153l43 206h75l-42 -206h155l-12 -72h-157l-28 -134h155l-12 -72h-157l-44 -216h-77zM289 329l-28 -134h153l27 134h-152z" />
<glyph unicode="$" horiz-adv-x="473" d="M24 83q0 26 33 122h39q0 -76 30.5 -112.5t76.5 -44.5l7 167q-25 12 -36.5 17.5t-34 18.5t-34 22.5t-28 25.5t-24.5 31.5t-14 36.5t-6 45q0 73 49 123t144 59l3 84h50l-4 -82q63 -1 163 -17l-32 -162h-38q0 39 -9 65.5t-25 38t-30 16t-31 5.5l-6 -162q2 -1 7 -3 q23 -10 35.5 -16t34.5 -18t34 -21.5t28 -25t24 -32t14 -38.5t6 -46q0 -82 -54.5 -130.5t-144.5 -55.5l-3 -87h-51l4 87q-44 1 -82.5 10.5t-66.5 30t-28 48.5zM322 116q0 22 -16 40t-47 35l-6 -142q30 5 49.5 22.5t19.5 44.5zM162 474q0 -40 55 -71l7 136q-30 -6 -46 -24 t-16 -41z" />
<glyph unicode="%" horiz-adv-x="821" d="M32 538q0 70 53 119.5t127 49.5t127.5 -49.5t53.5 -119.5q0 -71 -54 -121.5t-128 -50.5t-126.5 50.5t-52.5 121.5zM133 0l497 716l49 -32l-474 -684h-72zM134 539q0 -41 22.5 -66.5t54.5 -25.5q34 0 56.5 25.5t22.5 66.5q0 38 -23 63t-56 25q-32 0 -54.5 -25t-22.5 -63z M430 160q0 70 53.5 119.5t127.5 49.5t127.5 -49.5t53.5 -119.5q0 -71 -54 -121.5t-128 -50.5t-127 50.5t-53 121.5zM533 161q0 -41 22.5 -66.5t54.5 -25.5q34 0 56.5 25.5t22.5 66.5q0 38 -23 63t-56 25q-32 0 -54.5 -25t-22.5 -63z" />
<glyph unicode="&#x26;" horiz-adv-x="726" d="M21 164q0 95 149 185q-56 104 -56 199q0 65 55 115t152 50q40 0 73.5 -7t62 -22t44.5 -43t16 -66q0 -33 -29.5 -73t-63.5 -68.5t-74 -55.5q63 -101 167 -215q39 51 63 113t24 100q0 35 -16 50.5t-52 19.5v35h166l6 -16q-7 -10 -13 -25.5t-14 -43t-10 -34.5 q-43 -144 -118 -238q55 -57 103 -98.5t71 -52.5l-15 -31q-123 13 -253 96q-81 -51 -181 -51q-48 0 -91.5 9.5t-82 29.5t-61 55.5t-22.5 82.5zM335 60q37 0 71 15q-127 97 -206 221q-29 -31 -29 -89q0 -78 45.5 -112.5t118.5 -34.5zM272 583q0 -66 51 -160q33 28 46 63.5 t13 93.5q0 33 -17 57.5t-43 24.5q-27 0 -38.5 -24t-11.5 -55z" />
<glyph unicode="'" horiz-adv-x="217" d="M50 402v298h144v-38l-65 -260h-79z" />
<glyph unicode="(" horiz-adv-x="299" d="M24 284q0 77 20 152t48.5 127t57 93t48.5 61l20 20l46 -21q-5 -7 -13 -21t-28.5 -59t-36 -92.5t-28 -118.5t-12.5 -141q0 -78 15 -153.5t36 -128.5t42 -95t36 -63l15 -20l-45 -26q-9 8 -24 22.5t-53 63.5t-67 102t-53 134t-24 164z" />
<glyph unicode=")" horiz-adv-x="296" d="M13 -176q5 7 14 21t32.5 61t41.5 97t32.5 126.5t14.5 154.5q0 70 -11 139.5t-27.5 118.5t-32.5 88t-27 58l-11 20l45 29q8 -7 20.5 -20.5t44.5 -59t56.5 -95t44.5 -125.5t20 -153q0 -83 -22 -163t-53 -136t-62.5 -100t-52.5 -65l-22 -22z" />
<glyph unicode="*" horiz-adv-x="535" d="M192 685q-7 17 20 27t56 10q28 0 55 -10t20 -27l-56 -123q-4 -9 -9 -16.5t-7 -11.5l-3 -3q-11 12 -19 31zM268 260q-29 0 -56 10.5t-20 27.5l57 123q4 8 8.5 16t7.5 11l3 4q10 -10 19 -31l56 -123q7 -17 -20 -27.5t-55 -10.5zM62 524q-12 1 -13 17t5 33.5t14 32.5 q14 24 36 42t34 3l78 -109q6 -8 10.5 -16t5.5 -12l1 -4q-2 0 -5 -0.5t-12.5 -1t-18.5 0.5zM398 331l-79 109q-5 7 -9.5 15t-5.5 12l-2 4q2 1 5 1.5t12.5 1t18.5 -1.5l136 -13q12 -2 12.5 -17.5t-5.5 -33.5t-15 -32q-13 -24 -35 -42t-33 -3zM138 330q-11 -15 -33.5 3.5 t-36.5 42.5q-8 15 -14 32.5t-4.5 33t14.5 17.5l133 13q12 2 19.5 1.5t12.5 -1.5l4 -1q-5 -15 -17 -31zM302 511q4 14 17 32l79 110q11 14 33 -4t35 -42q9 -15 15 -32.5t4.5 -33.5t-15.5 -17l-132 -14q-10 -1 -18 -0.5t-13 1.5h-5z" />
<glyph unicode="+" horiz-adv-x="546" d="M29 229v85h201v215h89v-215h198v-85h-198v-229h-89v229h-201z" />
<glyph unicode="," horiz-adv-x="253" d="M38 57v64l117 61q62 -82 62 -153q0 -110 -151 -242l-38 44q48 45 66 70.5t18 54.5q0 49 -74 101z" />
<glyph unicode="-" horiz-adv-x="398" d="M50 225v92h299v-92h-299z" />
<glyph unicode="." horiz-adv-x="260" d="M39 79q0 38 26.5 65.5t64.5 27.5q39 0 66 -27.5t27 -65.5t-27 -65t-66 -27q-37 0 -64 27.5t-27 64.5z" />
<glyph unicode="/" horiz-adv-x="366" d="M-42 -206l350 906h92l-349 -906h-93z" />
<glyph unicode="0" horiz-adv-x="615" d="M307 65q30 0 51 15t31 42t14 56.5t4 67.5q0 191 -99 191q-31 0 -51.5 -16t-30.5 -45t-14 -59.5t-4 -70.5q0 -39 4 -68.5t14 -56.5t30.5 -41.5t50.5 -14.5zM47 245.5q0 49.5 17.5 97t49.5 86t84 62t116 23.5q61 0 110.5 -21t80 -56.5t47 -80.5t16.5 -94t-17.5 -97.5 t-49.5 -88.5t-84 -64.5t-116 -24.5q-61 0 -110.5 22t-80 59t-47 82.5t-16.5 95z" />
<glyph unicode="1" horiz-adv-x="437" d="M49 -5v44q50 0 69.5 15t19.5 52v290q0 36 -19 49t-75 13v44h349l-5 -42l-93 -12v-342q0 -14 -1.5 -28t-2.5 -21l-1 -7l108 -10l-4 -40z" />
<glyph unicode="2" horiz-adv-x="528" d="M48 0l-11 44q10 9 42.5 35t51 42t46.5 44.5t44 51.5t28 53.5t12 60.5q0 42 -22.5 62t-58.5 20q-62 0 -111 -29l-25 34l10.5 10.5t28 23t44.5 29.5t57 23t68 10q76 0 123.5 -42t47.5 -97q0 -20 -5 -38t-20 -38.5t-27.5 -35.5t-42.5 -41t-49.5 -42.5t-61.5 -50.5l-12 -9 h127q15 0 28 2.5t21.5 4.5t16.5 9.5t12 10.5t9.5 14.5t7 14t6 17t5.5 16.5h56l-35 -209h-411z" />
<glyph unicode="3" horiz-adv-x="436" d="M8 -163q33 6 58.5 13t57.5 21t53 31.5t35.5 46.5t14.5 65q0 37 -11.5 64t-31.5 40.5t-41 19.5t-46 6l-31 -2v63q37 3 65.5 20t44 41.5t23 48.5t7.5 45q0 29 -17 46t-49 17q-25 0 -51.5 -9.5t-39.5 -19.5l-14 -10l-19 29q3 4 8.5 11t24.5 24.5t40.5 30.5t54 24t66.5 11 q68 0 116.5 -38.5t48.5 -96.5q0 -29 -13.5 -54.5t-30 -42t-46 -34t-46.5 -25t-47 -19.5q95 -9 151.5 -56.5t56.5 -123.5q0 -53 -37 -100t-92.5 -75.5t-114.5 -44.5t-108 -16l-33 1z" />
<glyph unicode="4" horiz-adv-x="564" d="M21 27l-8 40l262 416l152 31l8 -1q-9 -40 -9 -114v-273h116l-16 -99h-100v-167q0 -18 -1 -32.5t-3 -19.5l-1 -5l-156 -15l-5 3q6 26 6 64v172h-245zM122 126h144v177q0 30 4 70z" />
<glyph unicode="5" horiz-adv-x="449" d="M38 -163q96 12 156 57.5t60 112.5q0 35 -22 63t-54 43t-63.5 24.5t-53.5 12.5l-22 3l20 349h257q18 0 36.5 1.5t27.5 3.5l10 1l-15 -123h-262l-4 -84q7 -1 17.5 -3t42.5 -11t60.5 -20.5t64 -32t60.5 -45t42.5 -60.5t17.5 -78q0 -78 -48 -139t-125 -92.5t-166 -31.5l-31 1 z" />
<glyph unicode="6" horiz-adv-x="564" d="M295 -13q-81 0 -139 42.5t-85 108.5t-27 149q0 63 16 124t50.5 115.5t82.5 96t117.5 66t151.5 24.5l6 -45q-66 -14 -115.5 -49.5t-79 -87t-43.5 -112t-14 -131.5q0 -65 10.5 -120t33.5 -91.5t54 -36.5q33 0 49.5 38t16.5 102q0 20 -3.5 49.5t-12 66t-27.5 63.5t-45 31 l-10 48q8 2 28.5 5t29.5 3q78 0 139 -56.5t61 -149.5q0 -47 -16 -91.5t-45.5 -81t-77.5 -58.5t-106 -22z" />
<glyph unicode="7" horiz-adv-x="523" d="M163 -75q28 35 75.5 113t100.5 195l55 121q-40 -4 -70 -4h-143q-51 0 -68 -13t-36 -60h-56l40 225h386q17 0 33 1t24 2l7 1l5 -31q-52 -100 -63 -127l-213 -471q-3 -6 -9 -20t-8.5 -20t-8 -16t-10 -14.5t-10.5 -9.5t-13.5 -7t-16.5 -2q-20 0 -35.5 15t-15.5 39 q0 12 4.5 22.5t9 16.5t17 20.5t19.5 23.5z" />
<glyph unicode="8" horiz-adv-x="560" d="M43 149q0 29 11.5 57t26 47.5t39 40t39 30t37.5 24.5q-60 53 -94.5 102.5t-34.5 105.5q0 71 58.5 114t158.5 43q96 0 151 -38.5t55 -99.5q0 -88 -119 -175q33 -30 54.5 -52t45 -52t35.5 -61t12 -64q0 -82 -69.5 -133t-173.5 -51q-59 0 -110 16.5t-86.5 54.5t-35.5 91z M178 182q0 -64 27 -103.5t68 -39.5q36 0 62 24.5t26 65.5q0 44 -32 85.5t-92 94.5q-1 -2 -4 -5q-18 -16 -27 -26.5t-18.5 -36t-9.5 -59.5zM219 600q0 -38 26.5 -74.5t77.5 -85.5q30 37 30 120q0 50 -19.5 76t-54.5 26q-28 0 -44 -17t-16 -45z" />
<glyph unicode="9" horiz-adv-x="578" d="M116 -167q66 14 115.5 49.5t78.5 86.5t43.5 110.5t14.5 129.5q0 102 -26.5 177.5t-70.5 75.5q-30 0 -45.5 -37t-15.5 -97q0 -21 1 -40t5.5 -51.5t12.5 -56t24.5 -42t38.5 -20.5l8 -50q-25 -7 -58 -7q-75 0 -134 56t-59 147q0 46 15.5 89.5t44.5 80t76.5 58.5t105.5 22 q79 0 136.5 -42t85 -109t27.5 -149q0 -63 -16.5 -124t-50.5 -116t-82.5 -96t-118 -65.5t-150.5 -24.5z" />
<glyph unicode=":" horiz-adv-x="302" d="M60 407q0 39 27 66.5t64 27.5q39 0 66 -27.5t27 -66.5q0 -37 -27 -64t-66 -27q-37 0 -64 27t-27 64zM60 79q0 38 27 65.5t64 27.5q39 0 66 -27.5t27 -65.5t-27 -65t-66 -27q-37 0 -64 27.5t-27 64.5z" />
<glyph unicode=";" horiz-adv-x="274" d="M54 57v64l117 61q62 -82 62 -153q0 -110 -151 -242l-38 44q47 45 65.5 70.5t18.5 54.5q0 49 -74 101zM38 407q0 39 26.5 66.5t64.5 27.5q39 0 66 -27.5t27 -66.5q0 -37 -27.5 -64t-65.5 -27q-37 0 -64 27t-27 64z" />
<glyph unicode="&#x3c;" horiz-adv-x="546" d="M22 246v48l447 240l25 -86l-351 -178l351 -189l-25 -85z" />
<glyph unicode="=" horiz-adv-x="546" d="M46 309v83h454v-83h-454zM46 134v83h454v-83h-454z" />
<glyph unicode="&#x3e;" horiz-adv-x="546" d="M52 81l351 189l-351 178l25 86l447 -240v-48l-447 -250z" />
<glyph unicode="?" horiz-adv-x="404" d="M146 235q-5 24 -5 61q0 34 11 64t25 47t25 35t11 33q0 23 -45 51t-90 43l-45 16l33 165q7 -3 19 -7t47 -17.5t66.5 -28t70 -35.5t66.5 -42t47 -47t19 -50q0 -26 -22 -53t-53 -52t-62 -51.5t-53 -61t-22 -70.5h-43zM76 79q0 38 27 65.5t64 27.5q39 0 66 -27.5t27 -65.5 q0 -37 -27.5 -64.5t-65.5 -27.5q-37 0 -64 27.5t-27 64.5z" />
<glyph unicode="@" horiz-adv-x="906" d="M17 196q0 87 37.5 167.5t100.5 139.5t150 94.5t181 35.5q109 0 198 -45t140.5 -124.5t51.5 -177.5q0 -47 -11.5 -92t-35.5 -87.5t-67.5 -71t-99.5 -33.5l-187 -16l-3 5q9 30 9 56v31q-2 -4 -6 -10t-16.5 -21.5t-26.5 -27.5t-36 -22t-44 -10q-59 0 -100.5 46.5 t-41.5 141.5q0 137 86.5 222.5t221.5 85.5q53 0 128 -14l2 -2q-9 -44 -9 -84v-281q0 -24 9 -37t24 -13q13 0 26.5 10t26.5 31t21 60t8 91q0 153 -76 242.5t-217 89.5q-66 0 -120 -20t-90 -54.5t-61 -80t-36 -95t-11 -101.5q0 -47 8 -92t28 -90t49.5 -81t75.5 -61.5 t103 -32.5l-10 -51q-164 7 -272 115t-108 264zM382 205q0 -62 11 -87t34 -25q9 0 21.5 4.5t20.5 8.5l8 4v319q-4 0 -10.5 -3t-22.5 -17.5t-28.5 -36.5t-23 -66.5t-10.5 -100.5z" />
<glyph unicode="A" horiz-adv-x="646" d="M-21 0v39q48 5 65 50l242 605l75 16l229 -598q1 -2 4 -10.5t4.5 -11.5t4.5 -10.5t5.5 -10.5t6 -9t7.5 -9t9 -6.5t10.5 -5t12.5 -2.5l-4 -37h-37l-231 -5v44q24 1 36.5 11t4.5 32l-40 116h-209l-19 -12l-51 -136l90 -10l-7 -40h-208zM309 417q-11 29 -30 89l-93 -242h175z " />
<glyph unicode="B" horiz-adv-x="666" d="M49 -3v42q62 8 62 65v485q0 39 -11.5 52t-60.5 25v34h279q143 0 211 -42.5t68 -110.5q0 -32 -14.5 -61t-34.5 -49t-43.5 -35.5t-39 -23t-22.5 -8.5q26 -6 49 -13.5t51 -21.5t47.5 -32t33 -46t13.5 -61q0 -84 -81.5 -140t-217.5 -56h-98zM275 63h53q49 0 88 34.5t39 83.5 v5q0 17 -1 29t-8.5 35.5t-22 38.5t-45 27.5t-74.5 12.5h-9l-15 -14v-194q0 -14 -1 -28.5t-3 -22.5zM280 392h72q4 0 11 3.5t17 13t18 23t14 36.5t6 51q0 56 -23 87t-81 31h-19l-15 -13v-232z" />
<glyph unicode="C" horiz-adv-x="723" d="M28 339q0 49 14.5 99t46 100t76.5 88.5t113.5 62.5t149.5 24q59 0 155 -16t105 -17l-32 -168h-44q-4 74 -55.5 107.5t-136.5 33.5q-50 0 -89 -15.5t-64 -40.5t-41 -60t-23 -72t-7 -78q0 -71 24.5 -128.5t65.5 -93t92 -54t107 -18.5q32 0 64 7.5t54.5 18t40.5 21t27 17.5 l9 8l20 -31q-3 -6 -10.5 -15.5t-34.5 -35t-58 -45t-84 -35.5t-111 -16q-74 0 -137.5 22t-106 57.5t-72.5 81.5t-44 94.5t-14 96.5z" />
<glyph unicode="D" horiz-adv-x="794" d="M49 -3v42q62 8 62 65v485q0 39 -11.5 52t-60.5 25v34h321q84 0 157 -20.5t129 -59.5t88 -101t32 -140q0 -88 -36 -161.5t-97 -120t-138 -72t-161 -25.5h-94zM275 63h59q115 0 181 70t66 212q0 132 -57 212t-160 80h-69l-15 -13v-502q0 -14 -1 -29t-3 -22z" />
<glyph unicode="E" horiz-adv-x="634" d="M49 -3v42q62 8 62 65v485q0 39 -11.5 52t-60.5 25v34h466l84 5l-33 -193h-44q2 41 -3 65.5t-20 38t-35.5 17.5t-54.5 4h-104l-15 -13v-234h165l9 60l47 7v-210h-58v80h-148l-15 -14v-191q0 -14 -1 -29t-3 -22l-1 -8h136q24 0 38.5 1t29.5 6t23.5 11.5t20 21.5t20.5 32 t23 48h44l-39 -183h-331z" />
<glyph unicode="F" horiz-adv-x="594" d="M50 -3v42q30 4 46 22t16 46v482q0 39 -11.5 52t-60.5 25v34h472l84 5l-32 -193h-44q2 41 -3.5 65.5t-20.5 38t-35.5 17.5t-54.5 4h-110l-15 -13v-239h169l9 62l47 7v-208h-58v77h-152l-15 -14v-202q0 -14 -1 -28t-3 -21l-1 -8l116 -9l-5 -38z" />
<glyph unicode="G" horiz-adv-x="753" d="M28 334q0 58 15.5 112.5t49.5 103t82.5 84.5t119 57.5t154.5 21.5q41 0 86 -4.5t96.5 -11.5t69.5 -9l-31 -176h-44q-1 42 -17 71t-44 43.5t-56 20.5t-61 6q-78 0 -133.5 -41.5t-80.5 -106t-25 -145.5q0 -132 68.5 -218.5t182.5 -86.5q40 0 76 8v126q0 28 -5 40t-25.5 21 t-66.5 16v34h284l6 -23q-2 -1 -4.5 -2.5t-8.5 -9t-10.5 -18t-8.5 -29t-4 -41.5v-162q-31 -1 -120 -14.5t-144 -13.5q-81 0 -153 23.5t-127.5 66t-88 109t-32.5 148.5z" />
<glyph unicode="H" horiz-adv-x="864" d="M47 -3v42q30 4 46 22t16 46v482q0 23 -1 32t-7 19t-18.5 15t-37.5 11v34h68q69 0 117.5 1t62.5 2l15 2l5 -5q-4 -5 -9.5 -15.5t-15.5 -45.5t-10 -74v-175h300l13 13v186q0 23 -1 32t-7.5 19t-20 15t-40.5 11v34h73q68 0 117 1.5t63 2.5l15 2l5 -5q-4 -5 -10 -15.5 t-15.5 -46t-9.5 -74.5v-458q0 -14 -1 -28t-3 -21l-1 -8l81 -9l-4 -38l-308 -6v42q31 4 49 21t18 44v219h-298l-15 -13v-203q0 -14 -1 -28t-3 -21l-1 -8l86 -9l-4 -38z" />
<glyph unicode="I" horiz-adv-x="382" d="M47 -3v42q30 4 46 22.5t16 47.5v480q0 23 -1 32t-7 19t-18.5 15t-37.5 11v34h68q69 0 117.5 1t62.5 2l15 2l5 -5q-4 -5 -9.5 -15.5t-15.5 -45.5t-10 -74v-456q0 -14 -1 -29t-3 -22l-1 -8l79 -9l-4 -38z" />
<glyph unicode="J" horiz-adv-x="351" d="M96 86v503q0 23 -1 32t-7.5 19t-19 15t-36.5 11v34h68q69 0 117.5 1t62.5 2l14 2l5 -5q-4 -4 -9.5 -13t-15 -42t-9.5 -72v-391q0 -164 -71.5 -258.5t-199.5 -94.5l-13 33q46 7 80.5 70.5t34.5 153.5z" />
<glyph unicode="K" horiz-adv-x="734" d="M47 -3v42q29 4 45.5 21t16.5 44v485q0 23 -1 32t-7 19t-18.5 15t-37.5 11v34h68q69 0 118 1t63 2l14 2l5 -5q-4 -4 -9.5 -13t-15.5 -42t-10 -72v-185h19q37 24 59 47l170 180q36 40 -37 51v34h213l8 -23q-7 -2 -18.5 -7.5t-41.5 -26t-55 -46.5l-148 -158v-22l226 -314 q25 -37 37.5 -48t28.5 -12l12 -1l-4 -42h-225l-4 5q-7 33 -63 109l-153 214h-24v-224q0 -14 -1 -27t-3 -20l-1 -7l86 -9l-4 -38z" />
<glyph unicode="L" horiz-adv-x="605" d="M47 -3v42q30 4 47.5 20.5t17.5 44.5v485q0 23 -0.5 32t-7 19t-19.5 15t-38 11v34h70q64 0 113 1t65 2l16 2l5 -5q-4 -5 -9.5 -15.5t-15.5 -45.5t-10 -74v-443q0 -14 -1 -29t-3 -22l-1 -8h131q31 0 52.5 7.5t40.5 28t32.5 41.5t36.5 64h44l-45 -204h-328z" />
<glyph unicode="M" horiz-adv-x="954" d="M32 -3v42q30 4 49 21t21 44l22 485q1 39 -10.5 51t-63.5 26v34h71q52 0 101 1t73 2l23 2l4 -5q6 -29 31 -96l107 -285q8 -21 20 -61l146 365q4 10 10 29.5t9 33.5l4 14h65l152 5l6 -5q-4 -5 -10 -15t-15 -44t-8 -73l20 -467q0 -15 -0.5 -28t-1.5 -20l-1 -6l78 -6l-4 -38 l-306 -6v42q68 8 67 62l-16 469l-228 -570l-47 13l-208 565q0 -24 -1 -44l-18 -430q0 -13 -2 -27t-3 -22l-2 -8l96 -6l-4 -38z" />
<glyph unicode="N" horiz-adv-x="829" d="M48 -3v42q71 8 71 65v439q0 50 -16 75.5t-63 47.5v34h29l151 5q14 -26 44 -55l359 -357q27 -27 44 -48v337q0 21 -1.5 31.5t-9.5 22.5t-25.5 17.5t-47.5 9.5v37h214l5 -23q-3 0 -7.5 -2t-16 -9.5t-20 -18.5t-16 -30.5t-7.5 -44.5v-577h-55l-447 450q-29 32 -46 53v-394 q0 -14 -1.5 -28t-2.5 -22l-1 -7l94 -6l-4 -38z" />
<glyph unicode="O" d="M214 371q0 -83 24.5 -155.5t75.5 -121t119 -48.5q64 0 109 43t65 109t20 147q0 59 -12.5 113t-37.5 98.5t-66.5 71t-94.5 26.5q-51 0 -90.5 -23.5t-63.5 -63.5t-36 -90t-12 -106zM30 338q0 56 16 109t49.5 101.5t81 85t116 58t149.5 21.5q78 0 142 -20t106 -53 t70.5 -77.5t41 -91.5t12.5 -96q0 -55 -16 -109t-49.5 -104.5t-80.5 -89t-116 -62t-149 -23.5q-75 0 -138 20.5t-105.5 54.5t-72 79.5t-43.5 95t-14 101.5z" />
<glyph unicode="P" horiz-adv-x="630" d="M50 -3v42q30 4 46 21t16 44v485q0 39 -11.5 52t-60.5 25v34h311q50 0 96 -9.5t86.5 -29.5t65 -56.5t24.5 -85.5q0 -64 -37 -120.5t-101 -88.5t-136 -24v46q89 14 89 143q0 72 -32.5 117t-81.5 45h-28l-15 -13v-520q0 -14 -1 -27t-3 -20l-1 -7l100 -9l-4 -38z" />
<glyph unicode="Q" d="M289 0q-88 24 -147.5 78.5t-85.5 119t-26 137.5q0 57 16 111t49.5 102.5t81 85t116.5 58t150 21.5q78 0 141.5 -20t105.5 -53t70.5 -77.5t41 -91t12.5 -95.5q0 -73 -28 -143.5t-89.5 -131.5t-147.5 -92q11 -5 31 -26t44 -45.5t52.5 -49t66 -40.5t74.5 -16q15 0 30 3v-44 q-6 -5 -18.5 -12.5t-51 -19.5t-78.5 -12q-42 0 -78 12t-65 35t-48 42t-43 49t-33 40q-13 14 -27.5 25t-24.5 17.5t-26 12.5t-22.5 8t-23.5 6.5t-19 5.5zM214 371q0 -83 24.5 -154.5t75.5 -118.5t119 -47q63 0 108.5 43t65.5 108t20 142q0 60 -12.5 113t-37.5 96.5 t-66.5 69.5t-94.5 26q-51 0 -90.5 -23.5t-63.5 -63.5t-36 -88.5t-12 -102.5z" />
<glyph unicode="R" horiz-adv-x="707" d="M50 -3v42q30 4 46 21t16 44v485q0 39 -11.5 52t-60.5 25v34h323q128 0 191 -49t63 -120q0 -91 -123 -174v-20l153 -233q17 -26 31 -40.5t20 -16.5t15 -4l11 -1l-4 -42h-224l-5 5q-9 40 -57 114l-112 172h-26l-15 -14v-173q0 -14 -1 -27t-3 -20l-1 -7l95 -9l-5 -38z M281 354h71q31 0 56 37.5t25 104.5q0 66 -30 103.5t-88 37.5h-19l-15 -13v-270z" />
<glyph unicode="S" horiz-adv-x="550" d="M36 93q0 29 35 131h45q0 -51 14.5 -87.5t39 -55t48.5 -26.5t50 -8q41 0 72.5 22t31.5 60q0 27 -14 50.5t-36.5 40.5t-51.5 35t-59.5 33.5t-59.5 37t-51.5 45.5t-36.5 58.5t-14 75.5q0 92 66 150t188 58q66 0 197 -20l-36 -181h-44q-2 68 -29 104.5t-93 36.5 q-50 0 -78 -23t-28 -58q0 -31 18 -56.5t46.5 -44t62.5 -36.5t68.5 -39t63 -46t46 -64t17.5 -88q0 -101 -69.5 -156t-178.5 -55q-39 0 -77 6t-72.5 18t-56.5 33.5t-24 48.5z" />
<glyph unicode="T" horiz-adv-x="685" d="M188 -3v42q32 4 49.5 22t17.5 46v530h-77q-50 0 -78.5 -24t-60.5 -101h-43l32 195q28 -7 71 -7h521q19 0 37.5 2t28.5 3l9 2l-32 -195h-45q-2 76 -27.5 100.5t-86.5 24.5h-66l-14 -13v-517q0 -14 -1 -28t-3 -21l-1 -8l105 -9l-4 -38z" />
<glyph unicode="U" horiz-adv-x="771" d="M81 245v344q0 23 -1 32t-7.5 19t-19 15t-36.5 11v34h68q69 0 117.5 1t62.5 2l14 2l6 -5q-4 -4 -10 -14t-15.5 -45t-9.5 -76v-312q0 -49 16 -88t43 -62t59 -34.5t68 -11.5q73 0 124.5 50.5t51.5 138.5v338q0 21 -1.5 31t-8.5 21.5t-23 17t-43 9.5v37h220l5 -23 q-3 -1 -8 -3.5t-18 -12t-23 -21.5t-18 -33t-8 -45v-313q0 -127 -81 -194.5t-210 -67.5q-45 0 -88 8.5t-84.5 28t-72.5 48.5t-50 73.5t-19 99.5z" />
<glyph unicode="V" horiz-adv-x="634" d="M280 3l-241 605q-8 20 -20.5 34.5t-21.5 19.5l-9 4v34h52l179 5l5 -5q-11 -19 -13 -46t6 -50l126 -333q14 -40 20 -65l150 368q17 34 6.5 57t-53.5 35v34h178l6 -23q-4 -2 -10.5 -8.5t-24 -33t-31.5 -62.5l-241 -582z" />
<glyph unicode="W" horiz-adv-x="988" d="M659 3l-164 444l-145 -456l-73 12l-241 605q-9 20 -21.5 34.5t-20.5 19.5l-9 4v34h52l174 5l4 -5q-10 -19 -12 -47t6 -49l125 -327q11 -32 18 -64l106 335l-22 60q-8 20 -22 34.5t-24 19.5l-10 4v34h57l174 5l4 -5q-10 -18 -11.5 -46t5.5 -50l108 -329q11 -35 16 -66 l117 365q14 34 4.5 57.5t-51.5 34.5v34h175l6 -23q-5 -2 -12 -8t-25 -32.5t-29 -63.5l-184 -582z" />
<glyph unicode="X" horiz-adv-x="675" d="M-1 0v39q26 3 44.5 16.5t38.5 37.5l186 237l-192 290q-11 15 -26 26.5t-25 15.5l-10 4v34h52l187 5l4 -5q-2 -4 -4 -11t-1 -27t13 -37l112 -176l121 154q18 23 0.5 43t-41.5 20v34h197l5 -22q-32 -19 -74 -71l-171 -215l227 -344l35 -10l-4 -38h-37l-231 -2v40 q27 4 32 13t-8 29l-123 193l-173 -219l96 -13l-4 -41h-226z" />
<glyph unicode="Y" horiz-adv-x="618" d="M161 -3v42q32 4 49.5 22.5t17.5 47.5v201l-188 310q-11 18 -23.5 29.5t-19.5 13.5l-7 3v34h53q49 0 92 1t62 2l19 2l4 -5q-1 -4 -3.5 -12t-2.5 -28t9 -35l107 -187q7 -13 28 -58l133 221q8 14 9 27t-12 23.5t-39 14.5v34h178l6 -23q-23 -11 -52 -57l-185 -293h1v-218 q0 -14 -1.5 -29t-2.5 -22l-1 -8l86 -9l-4 -38z" />
<glyph unicode="Z" horiz-adv-x="622" d="M21 -4l-6 38q22 12 57 74l269 478q9 15 34 51h-127q-59 0 -97.5 -24.5t-67.5 -100.5h-44l28 188h442q18 0 35 1t25 2l7 2l5 -38q-27 -24 -53 -75l-266 -474q-16 -30 -36 -55h162q58 0 94.5 29t75.5 112h44l-44 -204h-470q-18 0 -35 -1t-24 -2z" />
<glyph unicode="[" horiz-adv-x="308" d="M75 -174v874h220v-65h-117v-744h117v-65h-220z" />
<glyph unicode="\" horiz-adv-x="365" d="M315 -206l-349 906h92l349 -906h-92z" />
<glyph unicode="]" horiz-adv-x="308" d="M14 -109h116v744h-116v65h220v-874h-220v65z" />
<glyph unicode="^" horiz-adv-x="611" d="M38 262l224 451h87l224 -451h-94l-175 351l-174 -351h-92z" />
<glyph unicode="_" horiz-adv-x="520" d="M-2 -39h525v-68h-525v68z" />
<glyph unicode="`" horiz-adv-x="525" d="M151 722v29l148 -13l74 -179l-47 -26z" />
<glyph unicode="a" horiz-adv-x="518" d="M15 111q0 39 20 70.5t54.5 52t72.5 33t81 19.5l36 5v5v30.5t-0.5 26.5t-1.5 25.5t-3 20.5t-5.5 17.5t-8 12t-11.5 9t-15 2.5q-24 0 -47.5 -29.5t-35.5 -59.5l-11 -30h-57l-26 100q3 3 10 8t30.5 17.5t49.5 22t66.5 17.5t82.5 8q85 0 115 -33.5t30 -117.5v-233 q0 -49 23 -49q7 0 15.5 3t13.5 6l5 2l19 -31q-2 -2 -6 -5.5t-17.5 -13t-28 -16.5t-37.5 -13t-47 -6q-46 0 -72.5 18.5t-26.5 50.5v11q-2 -3 -6 -8.5t-17.5 -19t-28.5 -24t-38 -19.5t-46 -9t-45 7t-42 21t-32 39t-12 57zM177 143q0 -30 14 -45t36 -15q23 0 51 17v136l-26 -5 q-39 -8 -57 -29t-18 -59z" />
<glyph unicode="b" horiz-adv-x="572" d="M228 56q9 -9 34 -9q42 0 70 28t39 67.5t11 88.5q0 34 -6 63t-18.5 53t-36.5 38t-56 14q-20 0 -37 -3v-340zM55 3q10 32 10 105v521q0 19 -0.5 29t-3.5 20.5t-9.5 14.5t-17.5 4h-31v37q85 17 143 31t73.5 19.5t15.5 6.5l3 -3q-10 -37 -10 -118v-131q0 -34 -2 -69t-2 -37 q41 61 131 61q63 0 108.5 -34t66 -84t20.5 -108q0 -51 -18.5 -100t-54.5 -90t-95.5 -66t-134.5 -25q-35 0 -102.5 6.5t-86.5 6.5z" />
<glyph unicode="c" horiz-adv-x="473" d="M22 225q0 47 17.5 94t49.5 86.5t83.5 64t114.5 24.5q26 0 53.5 -4.5t55 -13.5t45 -27t17.5 -41.5t-16.5 -41.5t-41.5 -18q-21 0 -37 14.5t-25 32t-27 32t-43 14.5q-46 0 -72 -46.5t-26 -115.5q0 -83 39.5 -132.5t111.5 -49.5q31 0 62.5 8t47.5 16l16 8l13 -36 q-3 -4 -8 -11t-23 -25.5t-40 -32.5t-58.5 -25.5t-77.5 -11.5q-105 0 -168 70t-63 168z" />
<glyph unicode="d" horiz-adv-x="591" d="M22 207q0 72 33.5 137t99.5 107.5t149 42.5l44 -4v139q0 19 -1 29t-4 20.5t-9.5 14.5t-17.5 4h-31v37q85 17 143.5 31t74 19.5t15.5 6.5l3 -3q-11 -37 -11 -118v-562q0 -22 4 -34.5t13.5 -18t17 -6.5t24.5 -1h16l-3 -36q-68 -6 -128 -11.5t-85 -8.5l-26 -2l-1 2 q10 32 10 58v14q-20 -34 -62 -55.5t-79 -21.5q-75 0 -132 62.5t-57 157.5zM190 252q0 -28 5.5 -54.5t17 -52.5t34 -42t52.5 -16q29 0 49 7v285q0 18 -4 29.5t-10.5 16t-11.5 6t-12 1.5q-40 0 -68.5 -29.5t-40 -68.5t-11.5 -82z" />
<glyph unicode="e" horiz-adv-x="486" d="M22 232q0 109 72 185.5t178 76.5q81 0 134.5 -48t56.5 -147q-60 -21 -81 -24l-198 -30l-9 -14q28 -134 157 -134q31 0 60 9t43 18l14 9l14 -35q-2 -5 -7 -12.5t-22 -26.5t-37.5 -33.5t-55 -26.5t-72.5 -12q-76 0 -133.5 35.5t-85.5 90.5t-28 119zM247 437 q-33 0 -54.5 -40t-22.5 -98l143 18q0 5 -0.5 13t-4 28.5t-10 36.5t-20 29t-31.5 13z" />
<glyph unicode="f" horiz-adv-x="377" d="M29 -3v39q57 7 57 68v301h-63v54l63 23v35q0 73 37 134.5t94 94.5t120 33q35 0 68.5 -8t58.5 -27t25 -45q0 -28 -18.5 -46.5t-43.5 -18.5q-19 0 -39 13.5t-33.5 30t-29 30t-27.5 13.5q-29 0 -39 -41t-10 -143v-56h130l-13 -73h-104l-13 -13v-291q0 -14 -1.5 -28t-2.5 -22 l-1 -7l105 -9l-5 -35z" />
<glyph unicode="g" horiz-adv-x="529" d="M44 67q0 18 10 34.5t22.5 27t33.5 21t32.5 14.5t29.5 10q-65 15 -105 53.5t-40 99.5q0 78 66 122.5t158 44.5q36 0 82.5 -11t77.5 -11h50q15 0 32.5 3.5t26.5 7.5l10 3l-12 -90h-36q-11 0 -23 1t-13 1q31 -23 31 -75q0 -73 -66.5 -115t-160.5 -42q-26 0 -49 3 q-10 -16 -10 -30q0 -16 24 -26t60.5 -15t78.5 -15t78 -23.5t60.5 -41.5t24.5 -67q0 -86 -82.5 -143t-200.5 -57q-48 0 -97.5 14t-85.5 43t-36 65q0 20 10.5 37t30.5 30t39 22t46 19q-47 15 -72 35t-25 51zM230 -42q-38 8 -57 14q-26 -35 -26 -74q0 -44 30 -68t82 -24 q22 0 41.5 3.5t39.5 11.5t32 23.5t12 37.5q0 11 -3 19t-13 15t-18 11.5t-27.5 9.5t-32 8t-39.5 9q-14 2 -21 4zM252 217q69 0 69 103q0 51 -17.5 86.5t-55.5 35.5q-35 0 -50.5 -31.5t-15.5 -80.5q0 -113 70 -113z" />
<glyph unicode="h" horiz-adv-x="616" d="M25 -3v39q53 7 53 68v525q0 19 -1 29t-3.5 20.5t-9.5 14.5t-18 4h-31v37q85 17 143.5 31t74 19.5t15.5 6.5l3 -3q-11 -37 -11 -118v-170q0 -34 -2 -69t-2 -37q36 44 77 72t98 28q58 0 93 -35t35 -107v-248q0 -14 -1.5 -27.5t-2.5 -20.5l-2 -7l76 -11l-4 -35l-269 -6v39 q22 3 31 20t9 48v196q0 52 -10.5 68t-41.5 16q-51 0 -84 -20v-260q0 -14 -1 -28t-2 -22l-2 -7l56 -9l-4 -35z" />
<glyph unicode="i" horiz-adv-x="321" d="M28 -3v39q52 7 52 68v245q0 19 -1 28.5t-3.5 20t-9.5 15t-18 4.5h-33v37q46 4 103.5 18t92.5 25l35 11l5 -3q-8 -35 -8 -120v-281q0 -14 -1.5 -28t-2.5 -22l-2 -7l76 -9l-4 -35zM151 575q-40 0 -64.5 23t-24.5 61.5t24.5 61.5t64.5 23q41 0 66 -23t25 -61.5t-25 -61.5 t-66 -23z" />
<glyph unicode="j" horiz-adv-x="302" d="M75 -17v366q0 19 -1 28.5t-4 20t-9.5 15t-17.5 4.5h-34v37q47 4 105 18t93 25l35 11l4 -3q-9 -37 -9 -122v-320q0 -158 -68.5 -235t-195.5 -77l-13 34q46 6 80.5 63t34.5 135zM147 575q-40 0 -65 23t-25 61.5t25 61.5t65 23t65 -23t25 -61.5t-25 -61.5t-65 -23z" />
<glyph unicode="k" horiz-adv-x="599" d="M25 -3v39q53 7 53 68v525q0 19 -1 29t-3.5 20.5t-9.5 14.5t-18 4h-31v37q85 17 143.5 31t74 19.5t15.5 6.5l3 -3q-11 -37 -11 -118v-383h20l102 91q21 19 29 28.5t8 18.5q0 16 -31 21v35h208l6 -17q-81 -29 -111 -58l-85 -78v-18q6 -10 12 -17l136 -199 q16 -23 29.5 -35.5t19.5 -14.5t15 -3l12 -1l-4 -40l-209 -3q-9 40 -32 72l-105 165h-20v-130q0 -14 -1 -28t-2 -22l-2 -7l67 -9l-4 -35z" />
<glyph unicode="l" horiz-adv-x="320" d="M25 -3v39q53 7 53 68v525q0 19 -1 29t-3.5 20.5t-9.5 14.5t-18 4h-31v37q85 17 143.5 31t74 19.5t15.5 6.5l3 -3q-11 -37 -11 -118v-566q0 -14 -1 -28t-2 -22l-2 -7l76 -9l-4 -35z" />
<glyph unicode="m" horiz-adv-x="917" d="M29 -3v39q52 7 52 68v245q0 19 -1 28.5t-3.5 20t-9.5 15t-18 4.5h-34v37q59 8 117.5 22t86.5 23l29 9l3 -3q-10 -17 -16 -110q75 99 171 99q47 0 83 -21.5t50 -66.5q38 42 75.5 65t91.5 23q61 0 98 -35.5t37 -106.5v-248q0 -14 -1.5 -27.5t-2.5 -20.5l-1 -7l75 -11 l-4 -35l-265 -6v39q36 8 36 68v196q0 52 -13 68t-50 16q-28 0 -50 -9t-22 -27v-244q0 -14 -1.5 -27.5t-2.5 -20.5l-1 -7l57 -6l-6 -40l-245 -6v39q36 8 36 68v196q0 53 -14 68.5t-45 15.5q-45 0 -77 -19v-261q0 -14 -1.5 -27.5t-2.5 -20.5l-2 -7l58 -6l-6 -40z" />
<glyph unicode="n" horiz-adv-x="618" d="M28 -3v39q52 7 52 68v245q0 19 -1 28.5t-3.5 20t-9.5 15t-18 4.5h-33v37q58 8 116.5 22t86.5 23l29 9l3 -3q-10 -17 -17 -110q80 99 180 99q58 0 93 -35t35 -107v-248q0 -14 -1.5 -28t-2.5 -21l-1 -7l75 -10l-4 -35l-269 -6v39q40 7 40 68v196q0 52 -11 68t-43 16 q-44 0 -81 -19v-261q0 -14 -1.5 -28t-2.5 -21l-2 -7l56 -10l-4 -35z" />
<glyph unicode="o" horiz-adv-x="583" d="M22 231q0 48 16.5 93.5t48 84t86 62t123.5 23.5q120 0 193 -65t73 -171q0 -51 -18 -98.5t-51.5 -86.5t-87.5 -62.5t-120 -23.5q-117 0 -190 67.5t-73 176.5zM195 260q0 -54 10.5 -102t36 -83t60.5 -35q26 0 44 17t26.5 45.5t11.5 54.5t3 55q0 39 -4.5 76t-15.5 73t-32 58 t-50 22q-44 0 -67 -52t-23 -129z" />
<glyph unicode="p" horiz-adv-x="576" d="M28 -259v39q26 18 33.5 40.5t7.5 62.5v466q0 19 -0.5 28.5t-3.5 20t-9.5 15t-17.5 4.5h-29v37q56 8 112.5 22t85.5 23l29 9l3 -3q-9 -29 -12 -90q20 26 40.5 43.5t39.5 24.5t31 9t27 2q78 0 133.5 -62.5t55.5 -158.5q0 -53 -18.5 -103.5t-52.5 -91.5t-87 -66t-117 -25 q-28 0 -47 4v-107q0 -13 -1.5 -28t-2.5 -23l-1 -8h102l-5 -34q-195 -25 -296 -50zM273 49q38 0 64.5 27t37.5 65.5t11 84.5q0 29 -5 56.5t-16 53.5t-31.5 41.5t-47.5 15.5q-21 0 -54 -8v-284q0 -52 41 -52z" />
<glyph unicode="q" horiz-adv-x="574" d="M22 210q0 53 19 102.5t55.5 90.5t97 66t135.5 25q34 0 102.5 -6.5t84.5 -6.5l3 -3q-10 -38 -10 -105v-494q0 -13 -1 -28t-3 -23l-1 -8h65l-4 -33q-54 -8 -123 -19.5t-111 -19.5l-42 -7v39q31 20 44 42.5t13 57.5v62q0 34 2.5 69t2.5 37q-45 -61 -132 -61q-63 0 -109.5 34 t-67 83.5t-20.5 105.5zM190 250q0 -33 6 -61.5t19 -53.5t37.5 -39.5t58.5 -14.5q20 0 35 4v340q-9 9 -35 9q-41 0 -69.5 -28t-40 -68t-11.5 -88z" />
<glyph unicode="r" horiz-adv-x="450" d="M28 -3v39q52 7 52 68v244q0 19 -1 28.5t-3.5 20t-9.5 15t-18 4.5h-33v37q59 8 116.5 22t85.5 23l29 10l3 -3q-16 -57 -16 -125q1 1 3 4q71 110 150 110q38 0 54.5 -22.5t16.5 -49.5q0 -29 -20.5 -53t-57.5 -24q-21 0 -41 12t-32 12q-13 0 -29 -6t-25 -12l-9 -6v-241 q0 -14 -1.5 -28t-2.5 -22l-2 -7l92 -9l-5 -35z" />
<glyph unicode="s" horiz-adv-x="411" d="M24 62q0 13 5.5 35.5t10.5 39.5l5 16h37q6 -60 39 -88t73 -28q25 0 39.5 12.5t14.5 36.5q0 23 -16 41t-39.5 29.5t-51 27.5t-51 33t-39 47.5t-15.5 70.5q0 75 52.5 117t129.5 42q28 0 66.5 -5.5t62.5 -10.5l25 -6l-27 -124h-37q-11 96 -79 96q-22 0 -37.5 -12.5 t-15.5 -37.5q0 -24 16 -42.5t39.5 -29.5t50.5 -26t50.5 -31t39 -46t15.5 -69q0 -81 -55.5 -122t-140.5 -41q-61 0 -114 20.5t-53 54.5z" />
<glyph unicode="t" horiz-adv-x="402" d="M76 125v212l3 68h-66v54q49 9 74 32l41 121l116 -4l3 -3q-10 -19 -10 -102v-22h141l-7 -73h-119l-14 -13v-213q0 -52 12 -75t50 -23q20 0 41.5 6.5t33.5 12.5l11 6l19 -31q-3 -4 -9 -10t-25.5 -21.5t-40.5 -27.5t-54 -22t-66 -10q-61 0 -97.5 34t-36.5 104z" />
<glyph unicode="u" horiz-adv-x="602" d="M65 130v215q0 21 -0.5 31.5t-3.5 21t-9.5 15t-17.5 4.5h-24v38l225 44l2 -3q-9 -30 -9 -111v-207q0 -50 14 -70t39 -20q19 0 38 8t29 17l10 8v224q0 21 -0.5 31.5t-3.5 21t-9.5 15t-17.5 4.5h-21v40l222 42l2 -3q-9 -30 -9 -111v-277q0 -22 3.5 -34.5t13 -18t17.5 -6.5 t25 -1h15l-3 -36q-67 -6 -124.5 -11t-81.5 -8l-24 -2l-1 1q7 32 7 58v37q-3 -4 -7.5 -10.5t-20.5 -24t-33.5 -30.5t-45 -24t-55.5 -11q-62 0 -101.5 36t-39.5 107z" />
<glyph unicode="v" horiz-adv-x="499" d="M204 2l-157 383q-9 23 -23.5 38t-24.5 19l-9 4v35h45q48 0 93.5 1t66.5 2l21 1l4 -4l-2.5 -5t-4.5 -13.5t-4 -21t0.5 -26.5t7.5 -31l68 -161q8 -21 19 -62l93 211q25 56 -61 74v35h164l5 -17q-10 -8 -31 -57l-185 -419z" />
<glyph unicode="w" horiz-adv-x="783" d="M202 2l-154 383q-9 24 -23.5 39t-24.5 19l-9 3v35h45q48 0 92.5 1t64.5 2l20 1l4 -4q-1 -2 -2 -5t-4 -13.5t-4.5 -21t0.5 -26.5t7 -31l61 -164q13 -34 20 -70l59 128q16 29 -3 75l-14 32q-6 15 -14 26.5t-15 17.5t-13 10.5t-9 5.5l-4 1v35h42q49 0 93.5 1t64.5 2l20 1 l4 -4l-2.5 -5t-4.5 -13.5t-4 -21t0.5 -26.5t7.5 -31l61 -162q11 -31 19 -68l101 217q15 32 -1.5 48.5t-56.5 26.5v35h158l6 -17q-8 -5 -31 -56l-192 -420l-77 14l-95 235l-115 -249z" />
<glyph unicode="x" horiz-adv-x="527" d="M266 -3v41q11 0 18.5 3.5t10 13t-7.5 24.5l-62 93l-99 -125l70 -9l-4 -35l-185 -6v39q45 7 67 33l119 150l-123 180q-13 20 -28.5 32t-23.5 13l-9 2v35h66l158 4l4 -4q-1 -4 -2.5 -11.5t1.5 -27.5t14 -37l54 -83l67 85q3 5 4.5 9t0 7.5t-4 6t-7 4.5t-8 4t-9.5 3.5t-9 2 t-8 1.5t-7 1v35h183l5 -17q-34 -13 -66 -52l-109 -137l162 -234l34 -4l-4 -34z" />
<glyph unicode="y" horiz-adv-x="500" d="M86 -130q51 0 84 22t58 76q-31 79 -37 91l-146 326q-10 24 -24.5 39t-23.5 19l-10 3v35h45q49 0 94 1t65 2l21 1l4 -4q-9 -21 -10 -47t8 -50l72 -171q10 -26 20 -61l92 219q12 27 -6.5 46.5t-51.5 28.5v35h159l5 -17q-14 -17 -30 -56l-146 -346l-9 -21q-14 -32 -22 -50.5 t-25 -53t-30.5 -56t-34.5 -49t-40.5 -43.5t-45 -27t-51.5 -11q-30 0 -47 16.5t-17 42.5q0 25 19 42.5t61 17.5z" />
<glyph unicode="z" horiz-adv-x="481" d="M25 -4l-8 36q18 16 38 50l175 294q10 17 38 51h-84q-23 0 -41.5 -9.5t-30 -24.5t-18 -27.5t-10.5 -25.5h-54l19 141h336q18 0 34 1t24 2l7 1l9 -36q-18 -20 -36 -50l-172 -293q-15 -25 -39 -52h70q29 0 52 9.5t36 23.5t21.5 28t11.5 24l2 10h56l-28 -149h-336 q-20 0 -38 -1t-26 -2z" />
<glyph unicode="{" horiz-adv-x="353" d="M111 -69v18v45t-1 47.5t-4 51.5t-7.5 47t-13 44.5t-19.5 34t-27 24.5t-36 9v47q23 1 40.5 12.5t29 27.5t19.5 43.5t11.5 49t5.5 56t2 53v51.5v18q0 85 63 126.5t168 41.5l6 -46q-41 -4 -64 -13t-35.5 -31.5t-16 -51t-3.5 -82.5q0 -234 -117 -277v-2q24 -8 43.5 -27 t36.5 -52t27 -86.5t10 -123.5q0 -53 3.5 -81.5t16 -51t35.5 -31.5t64 -13l-6 -46q-231 0 -231 168z" />
<glyph unicode="|" horiz-adv-x="256" d="M74 -236v1022h109v-1022h-109z" />
<glyph unicode="}" horiz-adv-x="352" d="M125 -14q0 70 9.5 123.5t27 86.5t37 52t43.5 27v2q-117 42 -117 277q0 53 -3.5 82t-16.5 51.5t-36 31.5t-64 13l5 46q106 0 169 -41.5t63 -126.5q0 -6 -1 -18q0 -33 0.5 -51.5t2.5 -53t5.5 -56t11.5 -49t19.5 -43.5t29 -27.5t40.5 -12.5v-47q-20 -1 -36 -9t-27 -24.5 t-19.5 -34t-13 -44.5t-7.5 -47t-4 -51.5t-1.5 -47.5t-0.5 -45q1 -13 1 -18q0 -168 -232 -168l-5 46q42 4 65 13t35.5 31.5t16 51t3.5 81.5z" />
<glyph unicode="~" horiz-adv-x="618" d="M52 172q0 94 40.5 140t110.5 46q33 0 59.5 -11t43 -27.5t31.5 -32.5t34 -27t41 -11q20 0 34.5 10.5t21.5 27.5t10 33.5t3 33.5h84q0 -94 -40 -140t-110 -46q-34 0 -60 11t-43 27.5t-32 32.5t-33.5 27t-40.5 11q-21 0 -35.5 -10.5t-21.5 -27.5t-10 -33.5t-3 -33.5h-84z " />
<glyph unicode="&#xa1;" horiz-adv-x="322" d="M188 248l80 -461q-42 -6 -95.5 -17.5t-86.5 -20.5l-32 -8l-8 11q18 42 31 130l65 366h46zM257 402q0 -38 -26.5 -65.5t-64.5 -27.5t-65 27.5t-27 65.5q0 37 27 64.5t65 27.5t64.5 -27.5t26.5 -64.5z" />
<glyph unicode="&#xa2;" horiz-adv-x="491" d="M27 286q0 58 27.5 109.5t85.5 86.5t135 37l5 95h51l-5 -98q52 -9 90.5 -31t38.5 -56q0 -25 -13 -38.5t-37 -13.5q-13 0 -26 7.5t-20 15.5t-19.5 24.5t-17.5 21.5l-14 -298h1q60 0 133 52l15 -33q-2 -3 -5.5 -8.5t-17 -19.5t-29.5 -26t-43.5 -24t-58.5 -17l-4 -95h-50 l4 93q-107 3 -166.5 66t-59.5 150zM194 345q0 -53 17.5 -102.5t46.5 -74.5l15 307q-41 -2 -60 -38t-19 -92z" />
<glyph unicode="&#xa3;" horiz-adv-x="574" d="M52 256v51h70l11 92q10 94 68 148.5t168 54.5q32 0 60.5 -6t51.5 -22.5t23 -42.5q0 -50 -55 -50q-19 0 -34.5 10.5t-24.5 23.5t-23 23.5t-31 10.5q-21 0 -27.5 -26.5t-15.5 -126.5l-8 -89h159l-8 -51h-156v-4q-3 -38 -16.5 -73.5t-25.5 -51.5l-11 -17q7 -3 19 -7.5 t51.5 -12.5t79.5 -8q109 0 123 60l7 36h44q-3 -34 -8.5 -61t-18 -55t-30 -46.5t-46 -30t-65.5 -11.5q-48 0 -81 11l-99 33q-10 3 -36 3q-32 0 -116 -21l-12 39l6 3t13.5 10t17.5 18t15.5 27t10.5 36l15 123h-65z" />
<glyph unicode="&#xa5;" horiz-adv-x="594" d="M65 284v50h125l-110 186q-9 13 -21.5 22t-20.5 11l-9 1v35h42l174 3l3 -3q-13 -30 2 -57l69 -128q7 -13 29 -58l90 158q26 43 -30 50v35h151l4 -17q-22 -3 -47 -43l-118 -195h139v-50h-158v-64h158v-50h-158v-66q0 -14 -1.5 -28t-2.5 -22l-1 -7l52 -9l-4 -35l-262 -6v39 q56 7 56 68v66h-151v50h151v64h-151z" />
<glyph unicode="&#xa6;" horiz-adv-x="268" d="M80 353v376h109v-376h-109zM80 190h109v-376h-109v376z" />
<glyph unicode="&#xa7;" horiz-adv-x="497" d="M38 -142q5 -4 14 -10.5t43.5 -18t74.5 -11.5q46 0 78.5 19.5t47 50.5t19 71t-4.5 81l-55 300q-4 25 -6.5 41.5t-5.5 46.5t0 52t10 46t23.5 39.5t40.5 22.5l5 -5q-3 -38 -0.5 -70.5t13.5 -91.5l66 -373q6 -44 5 -87t-16.5 -81t-40.5 -66.5t-66 -45.5t-92 -17q-30 0 -58 7 t-47.5 17t-35 20t-22.5 16l-7 7zM145 43l-66 373q-7 45 -5.5 87.5t17 80.5t40.5 67t65.5 45.5t92.5 16.5q29 0 57.5 -7t48 -17t34.5 -19.5t23 -16.5l7 -7l-17 -40q-5 4 -14.5 11t-43.5 18t-74 11q-46 0 -78.5 -19t-47 -50.5t-19.5 -71t5 -81.5l55 -300q4 -25 6.5 -41.5 t5.5 -46.5t0 -52t-10 -46t-23.5 -39.5t-40.5 -22.5l-5 5q2 41 -0.5 70.5t-12.5 91.5z" />
<glyph unicode="&#xa8;" horiz-adv-x="525" d="M130 581q-36 0 -59 20.5t-23 55.5q0 36 23 57.5t59 21.5q37 0 59.5 -21.5t22.5 -57.5q0 -35 -22.5 -55.5t-59.5 -20.5zM396 581q-37 0 -59.5 20.5t-22.5 55.5q0 36 22.5 57.5t59.5 21.5q36 0 58.5 -21.5t22.5 -57.5q0 -35 -22.5 -55.5t-58.5 -20.5z" />
<glyph unicode="&#xa9;" horiz-adv-x="787" d="M32 350q0 98 48.5 181.5t132 132t181.5 48.5t181.5 -48.5t132 -132t48.5 -181.5t-48.5 -181.5t-132 -132.5t-181.5 -49t-181.5 49t-132 132.5t-48.5 181.5zM88 350q0 -129 88.5 -220t217.5 -91q128 0 216.5 91t88.5 220t-88.5 219.5t-216.5 90.5q-129 0 -217.5 -90.5 t-88.5 -219.5zM177 345q0 42 15 80.5t43 71t74.5 52.5t105.5 20q24 0 49 -5.5t50.5 -13.5t32.5 -9l-18 -128h-41q-5 65 -28 88t-61 23q-42 0 -69 -44.5t-27 -108.5q0 -72 35.5 -115.5t89.5 -43.5q32 0 63 10t46 20l15 10l12 -39q-26 -33 -71 -53t-85 -20q-96 0 -163.5 56 t-67.5 149z" />
<glyph unicode="&#xaa;" horiz-adv-x="411" d="M123 357q-38 0 -66.5 22t-28.5 67q0 54 50.5 85t132.5 41v14q0 48 -7 66.5t-22 18.5q-16 0 -32.5 -20.5t-25.5 -40.5l-8 -21h-41l-19 71q7 6 21 14.5t59 23t93 14.5q60 0 81.5 -23.5t21.5 -82.5v-159q0 -35 16 -35q6 0 12.5 3t10.5 7l4 3l16 -28q-5 -5 -13.5 -11.5 t-35.5 -17.5t-55 -11q-35 0 -54.5 14t-19.5 36q-4 -5 -12 -13.5t-31.5 -22.5t-46.5 -14zM177 428q6 0 14 2.5t14 4.5l5 3v87q-37 -4 -51 -19t-14 -40q0 -38 32 -38z" />
<glyph unicode="&#xab;" horiz-adv-x="529" d="M22 265v4q13 9 31 27t96 99q55 59 94 99l42 -11l-121 -216q12 -19 121 -215l-42 -10q-136 142 -170 176t-51 47zM236 265v4q13 9 31 27t96 99q56 59 94 99l42 -11l-121 -216q12 -19 121 -215l-42 -10q-136 142 -169.5 176t-51.5 47z" />
<glyph unicode="&#xac;" horiz-adv-x="546" d="M20 334v83h479v-300h-87v217h-392z" />
<glyph unicode="&#xad;" horiz-adv-x="398" d="M50 225v92h299v-92h-299z" />
<glyph unicode="&#xae;" horiz-adv-x="426" d="M213 376q-75 0 -128 53.5t-53 128t53 128t128 53.5t128.5 -53.5t53.5 -128t-53.5 -128t-128.5 -53.5zM213 412q55 0 98 44t43 101.5t-43 101t-98 43.5q-56 0 -98.5 -43.5t-42.5 -101t42.5 -101.5t98.5 -44zM129 468v21q17 2 17 16v111q0 10 -3.5 13t-16.5 7v13h76 q80 0 80 -44q0 -25 -34 -44q7 -17 14 -27l24 -33q3 -5 6 -7.5t4.5 -3t6 -1t5.5 -0.5l-1 -20l-60 -1q-6 14 -17 32l-28 42h-4v-37l-2 -13l27 -3l-1 -19zM198 626v-61h13q7 1 12.5 9t5.5 22q0 12 -8 20.5t-23 9.5z" />
<glyph unicode="&#xaf;" horiz-adv-x="525" d="M118 602v87h289v-87h-289z" />
<glyph unicode="&#xb0;" horiz-adv-x="305" d="M153 521q27 0 45.5 19t18.5 47t-18.5 46t-45.5 18t-45.5 -18t-18.5 -46t18.5 -47t45.5 -19zM153.5 461q-53.5 0 -91 37t-37.5 89t37.5 89t91 37t90.5 -37t37 -89t-37 -89t-90.5 -37z" />
<glyph unicode="&#xb1;" horiz-adv-x="546" d="M56 320v85h168v181h88v-181h165v-85h-165v-194h-88v194h-168zM66 0v84h404v-84h-404z" />
<glyph unicode="&#xb2;" horiz-adv-x="367" d="M28 395l-10 35q2 3 23 23t27.5 26t25 26t26 30t21 29t19 33t10.5 32t5 35q0 39 -18 58t-49 19q-33 0 -67 -21l-25 30l8 8t22.5 18.5t35.5 23.5t46 18t56 8q52 0 92 -28t40 -74q0 -42 -34.5 -86t-133.5 -141q-5 -6 -8 -9h110q29 0 40.5 12.5t21.5 43.5h38l-19 -149h-303z " />
<glyph unicode="&#xb3;" horiz-adv-x="348" d="M244 410q-46 -23 -108 -23q-127 0 -127 54q0 11 12 20t25 9q18 0 31.5 -7t20.5 -16t17 -16.5t21 -7.5q19 0 30.5 25t11.5 59q0 80 -66 80q-13 0 -29 -3v45q36 8 56.5 29t20.5 53q0 19 -12 32t-37 13q-31 0 -54 -15l-22 31q6 6 17.5 15t45.5 24t67 15q60 0 98 -21.5 t38 -62.5t-31.5 -69t-75.5 -41q59 -13 96.5 -43t37.5 -69q0 -34 -22.5 -63t-61.5 -47z" />
<glyph unicode="&#xb4;" horiz-adv-x="548" d="M202 533l-49 26l75 179l148 13v-29z" />
<glyph unicode="&#xb5;" horiz-adv-x="611" d="M61 -60v413q0 29 -2 55.5t-4 37.5l-1 12l173 32l4 -3q-7 -35 -7 -115v-181q0 -103 56 -103q28 0 69 24v249q0 30 -2 56t-4 38l-2 11l173 33l5 -3q-8 -35 -8 -116v-272q0 -31 12 -45.5t39 -14.5h27l3 -33q-82 -28 -128 -28q-106 0 -106 89v4q-48 -93 -132 -93 q-45 0 -84 39q3 -50 22 -127t19 -95q0 -27 -16.5 -40t-40.5 -13q-25 0 -47 18.5t-22 57.5q0 15 2 52.5t2 60.5z" />
<glyph unicode="&#xb6;" horiz-adv-x="692" d="M168 -194q0 18 15 34.5t42 16.5q8 0 24.5 -4t23.5 -4q15 0 26 3.5t17.5 15t10.5 21.5t5.5 33t2 38.5t0.5 49.5v6v151h-15q-76 0 -136 22t-96 60t-54.5 84.5t-18.5 99.5q0 51 19 98t55 85.5t95 61t131 22.5h249q62 0 83 5l-12 -71h-64v-634h-76v634h-79v-558 q0 -31 -1 -56.5t-5.5 -60.5t-12 -62t-22 -55.5t-33.5 -47.5t-48 -31t-65 -12q-27 0 -44 16t-17 39z" />
<glyph unicode="&#xb7;" horiz-adv-x="270" d="M134 177q-37 0 -64 27t-27 65t27 65t64 27q39 0 66.5 -27t27.5 -65t-27.5 -65t-66.5 -27z" />
<glyph unicode="&#xb8;" horiz-adv-x="525" d="M200 -96q0 16 10 40t20 40l10 16h41q-9 -33 -9 -42t16 -17.5t35 -16t35 -25.5t16 -43q0 -46 -36 -75.5t-94 -29.5q-33 0 -60.5 10.5t-38.5 20.5l-12 10l19 45q36 -29 79 -29q16 0 30 6t14 18q0 11 -12 20t-26 14.5t-25.5 15.5t-11.5 22z" />
<glyph unicode="&#xb9;" horiz-adv-x="326" d="M27 393v37l44 3q17 1 26 7t10.5 12.5t1.5 16.5v239q0 23 -6 28t-16 0l-61 -13l-12 42q63 15 122 31.5t86 25.5l28 9l3 -5q-8 -22 -8 -71v-286l-2 -31l83 -5l-4 -36z" />
<glyph unicode="&#xba;" horiz-adv-x="431" d="M210 357q-82 0 -133.5 48t-51.5 124q0 34 11.5 65.5t34 58t60.5 43t87 16.5q85 0 137 -45.5t52 -119.5q0 -76 -52.5 -133t-144.5 -57zM224 399q15 0 26.5 10.5t16.5 23.5t8 34.5t3 33.5v31v6q-1 52 -18 92t-49 40q-28 0 -43 -35.5t-15 -86.5q0 -37 7 -69.5t23.5 -56 t40.5 -23.5z" />
<glyph unicode="&#xbb;" horiz-adv-x="529" d="M245 52l120 215q-11 18 -120 216l42 11q38 -40 94 -99q77 -81 95 -99t31 -27v-4q-17 -13 -51 -47t-169 -176zM30 52l121 215q-12 18 -121 216l42 11q37 -39 92 -96q79 -84 97 -102t31 -27v-4q-18 -13 -51.5 -47.5t-168.5 -175.5z" />
<glyph unicode="&#xbc;" horiz-adv-x="915" d="M526 105l-9 43l199 275l101 7q-2 -15 -2 -71v-195h71l-9 -59h-62v-31l-2 -32l60 -5l-3 -35l-236 -4v36q22 2 34.5 13t12.5 27v31h-155zM576 164h105v139zM46 272v38l44 2q17 1 26 7t10.5 12.5t1.5 17.5v238q0 23 -6 28t-16 0l-61 -12l-12 42q63 15 122 31t86 25l28 9 l3 -4q-8 -23 -8 -72v-285l-3 -32l83 -5l-3 -36zM284 0h-75l416 721l57 -25z" />
<glyph unicode="&#xbd;" horiz-adv-x="959" d="M608 0l-11 36q3 2 24 22t27 26t25 26t26.5 30.5t21 29.5t19 33t10.5 31.5t5 34.5q0 39 -18.5 58t-48.5 19q-34 0 -67 -20l-26 29q3 3 8.5 8t22.5 18.5t35.5 23.5t46.5 18.5t55 8.5q53 0 93 -28t40 -74q0 -43 -35 -87t-133 -141l-9 -9h111q28 0 40 12.5t21 43.5h38 l-19 -149h-302zM44 272v38l44 2q17 1 26 7t10.5 12.5t1.5 17.5v238q0 23 -6 28t-16 0l-61 -12l-13 42q63 15 122.5 31t86.5 25l28 9l3 -4q-9 -23 -9 -72v-285l-2 -32l83 -5l-3 -36zM314 0h-75l416 721l58 -25z" />
<glyph unicode="&#xbe;" horiz-adv-x="930" d="M538 105l-10 43l200 275l100 7q-2 -15 -2 -71v-195h72l-10 -59h-62v-31l-2 -32l60 -5l-2 -35l-236 -4v36q22 2 34.5 13t12.5 27v31h-155zM588 164h105v139zM265 289q-46 -22 -107 -22q-128 0 -128 53q0 12 12 21t25 9q18 0 31.5 -7.5t20.5 -16.5t17 -16.5t22 -7.5 q18 0 30 25t12 59q0 80 -67 80q-13 0 -29 -3v45q36 8 56.5 29.5t20.5 52.5q0 19 -12 32t-37 13q-31 0 -54 -14l-22 30q6 6 17.5 15t45.5 24.5t67 15.5q60 0 98 -22t38 -62.5t-31.5 -69t-75.5 -41.5q59 -13 96.5 -43t37.5 -69q0 -34 -22.5 -63t-61.5 -47zM295 0h-75l416 721 l58 -25z" />
<glyph unicode="&#xbf;" horiz-adv-x="430" d="M267 246q5 -24 5 -61q0 -35 -11.5 -65t-25 -46.5t-24.5 -35t-11 -32.5q0 -24 45 -51.5t90 -43.5l45 -16l-34 -164q-7 2 -19 6.5t-47 18t-66.5 27.5t-70.5 35.5t-66.5 42.5t-47 47t-19.5 50q0 26 22 53t53.5 52t63 51.5t53.5 61t22 70.5h43zM336 402q0 -38 -27 -65.5 t-64 -27.5q-39 0 -66.5 27.5t-27.5 65.5q0 37 27.5 64.5t66.5 27.5q37 0 64 -27.5t27 -64.5z" />
<glyph unicode="&#xc0;" horiz-adv-x="646" d="M-21 0v39q48 5 65 50l242 605l75 16l229 -598q1 -2 4 -10.5t4.5 -11.5t4.5 -10.5t5.5 -10.5t6 -9t7.5 -9t9 -6.5t10.5 -5t12.5 -2.5l-4 -37h-37l-231 -5v44q24 1 36.5 11t4.5 32l-40 116h-209l-19 -12l-51 -136l90 -10l-7 -40h-208zM180 801v34l50 86h5l211 -124l-23 -48 zM309 417q-11 29 -30 89l-93 -242h175z" />
<glyph unicode="&#xc1;" horiz-adv-x="646" d="M-21 0v39q48 5 65 50l242 605l75 16l229 -598q1 -2 4 -10.5t4.5 -11.5t4.5 -10.5t5.5 -10.5t6 -9t7.5 -9t9 -6.5t10.5 -5t12.5 -2.5l-4 -37h-37l-231 -5v44q24 1 36.5 11t4.5 32l-40 116h-209l-19 -12l-51 -136l90 -10l-7 -40h-208zM309 417q-11 29 -30 89l-93 -242h175z M200 797l211 124h5l51 -86v-34l-243 -52z" />
<glyph unicode="&#xc2;" horiz-adv-x="646" d="M-21 0v39q48 5 65 50l242 605l75 16l229 -598q1 -2 4 -10.5t4.5 -11.5t4.5 -10.5t5.5 -10.5t6 -9t7.5 -9t9 -6.5t10.5 -5t12.5 -2.5l-4 -37h-37l-231 -5v44q24 1 36.5 11t4.5 32l-40 116h-209l-19 -12l-51 -136l90 -10l-7 -40h-208zM309 417q-11 29 -30 89l-93 -242h175z M136 789l143 126h90l141 -126l-40 -37l-139 69h-15l-140 -69z" />
<glyph unicode="&#xc3;" horiz-adv-x="646" d="M-21 0v39q48 5 65 50l242 605l75 16l229 -598q1 -2 4 -10.5t4.5 -11.5t4.5 -10.5t5.5 -10.5t6 -9t7.5 -9t9 -6.5t10.5 -5t12.5 -2.5l-4 -37h-37l-231 -5v44q24 1 36.5 11t4.5 32l-40 116h-209l-19 -12l-51 -136l90 -10l-7 -40h-208zM309 417q-11 29 -30 89l-93 -242h175z M178 766l-51 11q0 5 1.5 13.5t9 30.5t19 39t35.5 30.5t56 13.5q38 0 88.5 -25t74.5 -25q22 0 36.5 12.5t17.5 24.5l3 13l53 -6q0 -6 -1 -14.5t-8 -31.5t-19 -40t-37 -31.5t-59 -14.5q-33 0 -63 13t-54.5 25.5t-44.5 12.5q-21 0 -35.5 -12.5t-17.5 -25.5z" />
<glyph unicode="&#xc4;" horiz-adv-x="646" d="M-21 0v39q48 5 65 50l242 605l75 16l229 -598q1 -2 4 -10.5t4.5 -11.5t4.5 -10.5t5.5 -10.5t6 -9t7.5 -9t9 -6.5t10.5 -5t12.5 -2.5l-4 -37h-37l-231 -5v44q24 1 36.5 11t4.5 32l-40 116h-209l-19 -12l-51 -136l90 -10l-7 -40h-208zM309 417q-11 29 -30 89l-93 -242h175z M105 835q0 36 22.5 56.5t59.5 20.5t59.5 -20.5t22.5 -56.5q0 -35 -22.5 -56t-59.5 -21t-59.5 21t-22.5 56zM381 835q0 36 22 56.5t59 20.5t59.5 -20.5t22.5 -56.5q0 -35 -22.5 -56t-59.5 -21t-59 21t-22 56z" />
<glyph unicode="&#xc5;" horiz-adv-x="646" d="M-21 0v39q48 5 65 50l242 605l75 16l229 -598q1 -2 4 -10.5t4.5 -11.5t4.5 -10.5t5.5 -10.5t6 -9t7.5 -9t9 -6.5t10.5 -5t12.5 -2.5l-4 -37h-37l-231 -5v44q24 1 36.5 11t4.5 32l-40 116h-209l-19 -12l-51 -136l90 -10l-7 -40h-208zM323.5 741q-55.5 0 -83 25.5 t-27.5 65.5q0 34 27.5 58.5t82.5 24.5t83 -24.5t28 -58.5q0 -40 -27.5 -65.5t-83 -25.5zM309 417q-11 29 -30 89l-93 -242h175zM323 788q22 0 35 11.5t13 31.5q0 14 -12.5 25.5t-35.5 11.5q-22 0 -34 -11t-12 -26q0 -21 12 -32t34 -11z" />
<glyph unicode="&#xc6;" horiz-adv-x="936" d="M-32 0v39q46 5 71 50l278 500q15 27 -9.5 46t-83.5 31v34h583l84 5l-32 -193h-44q2 41 -3.5 65.5t-20.5 38t-35.5 17.5t-54.5 4h-104l-14 -13v-245h165l8 71l47 7v-210h-57v69h-149l-14 -14v-180q0 -14 -1.5 -29t-2.5 -22l-1 -8h135q25 0 39.5 1t29 6t23 11.5t20 21.5 t20.5 32t23 48h44l-38 -183h-331l-197 -3v42q68 8 68 65v212h-162l-20 -13l-135 -253l91 -10l-8 -40h-212zM380 579l-107 -200h141v246q-24 -29 -34 -46z" />
<glyph unicode="&#xc7;" horiz-adv-x="723" d="M308 -96q0 25 34 88q-62 8 -115 33t-89 60t-61 78t-37 87.5t-12 88.5q0 49 14.5 99t46 100t76.5 88.5t113.5 62.5t149.5 24q59 0 155 -16t105 -17l-32 -168h-44q-4 74 -55.5 107.5t-136.5 33.5q-50 0 -89 -15.5t-64 -40.5t-41 -60t-23 -72t-7 -78q0 -71 24.5 -128.5 t65.5 -93t92 -54t107 -18.5q32 0 64 7.5t54.5 18t40.5 21t27 17.5l9 8l20 -31q-3 -6 -10.5 -15.5t-34.5 -35t-58 -45t-84 -35.5t-111 -16q-3 0 -8.5 0.5t-8.5 0.5q-5 -26 -5 -30q0 -9 16 -17.5t35 -16t35 -25.5t16 -43q0 -46 -36 -75.5t-94 -29.5q-33 0 -60.5 10.5 t-38.5 20.5l-11 10l18 45q36 -29 79 -29q16 0 30 6t14 18q0 11 -11.5 20t-26 14.5t-26 15.5t-11.5 22z" />
<glyph unicode="&#xc8;" horiz-adv-x="634" d="M196 801v34l51 86h5l211 -124l-23 -48zM49 -3v42q62 8 62 65v485q0 39 -11.5 52t-60.5 25v34h466l84 5l-33 -193h-44q2 41 -3 65.5t-20 38t-35.5 17.5t-54.5 4h-104l-15 -13v-234h165l9 60l47 7v-210h-58v80h-148l-15 -14v-191q0 -14 -1 -29t-3 -22l-1 -8h136 q24 0 38.5 1t29.5 6t23.5 11.5t20 21.5t20.5 32t23 48h44l-39 -183h-331z" />
<glyph unicode="&#xc9;" horiz-adv-x="634" d="M49 -3v42q62 8 62 65v485q0 39 -11.5 52t-60.5 25v34h466l84 5l-33 -193h-44q2 41 -3 65.5t-20 38t-35.5 17.5t-54.5 4h-104l-15 -13v-234h165l9 60l47 7v-210h-58v80h-148l-15 -14v-191q0 -14 -1 -29t-3 -22l-1 -8h136q24 0 38.5 1t29.5 6t23.5 11.5t20 21.5t20.5 32 t23 48h44l-39 -183h-331zM215 797l211 124h6l51 -86v-34l-244 -52z" />
<glyph unicode="&#xca;" horiz-adv-x="634" d="M145 789l143 126h89l142 -126l-40 -37l-140 69h-15l-139 -69zM49 -3v42q62 8 62 65v485q0 39 -11.5 52t-60.5 25v34h466l84 5l-33 -193h-44q2 41 -3 65.5t-20 38t-35.5 17.5t-54.5 4h-104l-15 -13v-234h165l9 60l47 7v-210h-58v80h-148l-15 -14v-191q0 -14 -1 -29t-3 -22 l-1 -8h136q24 0 38.5 1t29.5 6t23.5 11.5t20 21.5t20.5 32t23 48h44l-39 -183h-331z" />
<glyph unicode="&#xcb;" horiz-adv-x="634" d="M49 -3v42q62 8 62 65v485q0 39 -11.5 52t-60.5 25v34h466l84 5l-33 -193h-44q2 41 -3 65.5t-20 38t-35.5 17.5t-54.5 4h-104l-15 -13v-234h165l9 60l47 7v-210h-58v80h-148l-15 -14v-191q0 -14 -1 -29t-3 -22l-1 -8h136q24 0 38.5 1t29.5 6t23.5 11.5t20 21.5t20.5 32 t23 48h44l-39 -183h-331zM121 835q0 36 22 56.5t60 20.5q36 0 59 -20.5t23 -56.5q0 -35 -23 -56t-59 -21q-38 0 -60 21t-22 56zM397 835q0 36 22 56.5t59 20.5t59.5 -20.5t22.5 -56.5q0 -35 -22.5 -56t-59.5 -21t-59 21t-22 56z" />
<glyph unicode="&#xcc;" horiz-adv-x="382" d="M47 -3v42q30 4 46 22.5t16 47.5v480q0 23 -1 32t-7 19t-18.5 15t-37.5 11v34h68q69 0 117.5 1t62.5 2l15 2l5 -5q-4 -5 -9.5 -15.5t-15.5 -45.5t-10 -74v-456q0 -14 -1 -29t-3 -22l-1 -8l79 -9l-4 -38zM44 801v34l50 86h6l211 -124l-23 -48z" />
<glyph unicode="&#xcd;" horiz-adv-x="382" d="M47 -3v42q30 4 46 22.5t16 47.5v480q0 23 -1 32t-7 19t-18.5 15t-37.5 11v34h68q69 0 117.5 1t62.5 2l15 2l5 -5q-4 -5 -9.5 -15.5t-15.5 -45.5t-10 -74v-456q0 -14 -1 -29t-3 -22l-1 -8l79 -9l-4 -38zM63 797l211 124h5l52 -86v-34l-244 -52z" />
<glyph unicode="&#xce;" horiz-adv-x="382" d="M47 -3v42q30 4 46 22.5t16 47.5v480q0 23 -1 32t-7 19t-18.5 15t-37.5 11v34h68q69 0 117.5 1t62.5 2l15 2l5 -5q-4 -5 -9.5 -15.5t-15.5 -45.5t-10 -74v-456q0 -14 -1 -29t-3 -22l-1 -8l79 -9l-4 -38zM0 789l143 126h89l142 -126l-40 -37l-140 69h-14l-140 -69z" />
<glyph unicode="&#xcf;" horiz-adv-x="382" d="M-5 835q0 36 22 56.5t60 20.5q36 0 58.5 -20.5t22.5 -56.5q0 -35 -22.5 -56t-58.5 -21q-38 0 -60 21t-22 56zM218 835q0 36 22.5 56.5t58.5 20.5q38 0 60 -20.5t22 -56.5q0 -35 -22.5 -56t-59.5 -21q-36 0 -58.5 21t-22.5 56zM47 -3v42q30 4 46 22.5t16 47.5v480 q0 23 -1 32t-7 19t-18.5 15t-37.5 11v34h68q69 0 117.5 1t62.5 2l15 2l5 -5q-4 -5 -9.5 -15.5t-15.5 -45.5t-10 -74v-456q0 -14 -1 -29t-3 -22l-1 -8l79 -9l-4 -38z" />
<glyph unicode="&#xd0;" horiz-adv-x="804" d="M35 323v67h87v199q0 39 -12.5 52t-65.5 25v34h326q84 0 157 -20.5t129 -59.5t88 -101t32 -140q0 -88 -36 -161.5t-97 -120t-138 -72t-162 -25.5h-93l-195 -3v42q32 4 49.5 20.5t17.5 44.5v219h-87zM286 63h57q115 0 181.5 70t66.5 212q0 132 -57 212t-160 80h-70l-13 -13 v-234h138v-67h-138v-201q0 -14 -1.5 -29t-2.5 -22z" />
<glyph unicode="&#xd1;" horiz-adv-x="829" d="M48 -3v42q71 8 71 65v439q0 50 -16 75.5t-63 47.5v34h29l151 5q14 -26 44 -55l359 -357q27 -27 44 -48v337q0 21 -1.5 31.5t-9.5 22.5t-25.5 17.5t-47.5 9.5v37h214l5 -23q-3 0 -7.5 -2t-16 -9.5t-20 -18.5t-16 -30.5t-7.5 -44.5v-577h-55l-447 450q-29 32 -46 53v-394 q0 -14 -1.5 -28t-2.5 -22l-1 -7l94 -6l-4 -38zM280 766l-51 11q0 5 1.5 13.5t9 30.5t19 39t35.5 30.5t56 13.5q38 0 88.5 -25t73.5 -25t37.5 12.5t17.5 24.5l3 13l53 -6q0 -6 -1 -14.5t-8 -31.5t-19 -40t-37 -31.5t-59 -14.5q-33 0 -63 13t-55 25.5t-44 12.5 q-21 0 -35.5 -12.5t-17.5 -25.5z" />
<glyph unicode="&#xd2;" d="M279 801v34l51 86h5l211 -124l-23 -48zM214 371q0 -83 24.5 -155.5t75.5 -121t119 -48.5q64 0 109 43t65 109t20 147q0 59 -12.5 113t-37.5 98.5t-66.5 71t-94.5 26.5q-51 0 -90.5 -23.5t-63.5 -63.5t-36 -90t-12 -106zM30 338q0 56 16 109t49.5 101.5t81 85t116 58 t149.5 21.5q78 0 142 -20t106 -53t70.5 -77.5t41 -91.5t12.5 -96q0 -55 -16 -109t-49.5 -104.5t-80.5 -89t-116 -62t-149 -23.5q-75 0 -138 20.5t-105.5 54.5t-72 79.5t-43.5 95t-14 101.5z" />
<glyph unicode="&#xd3;" d="M298 797l211 124h5l52 -86v-34l-244 -52zM214 371q0 -83 24.5 -155.5t75.5 -121t119 -48.5q64 0 109 43t65 109t20 147q0 59 -12.5 113t-37.5 98.5t-66.5 71t-94.5 26.5q-51 0 -90.5 -23.5t-63.5 -63.5t-36 -90t-12 -106zM30 338q0 56 16 109t49.5 101.5t81 85t116 58 t149.5 21.5q78 0 142 -20t106 -53t70.5 -77.5t41 -91.5t12.5 -96q0 -55 -16 -109t-49.5 -104.5t-80.5 -89t-116 -62t-149 -23.5q-75 0 -138 20.5t-105.5 54.5t-72 79.5t-43.5 95t-14 101.5z" />
<glyph unicode="&#xd4;" d="M235 789l143 126h89l142 -126l-40 -37l-140 69h-14l-140 -69zM214 371q0 -83 24.5 -155.5t75.5 -121t119 -48.5q64 0 109 43t65 109t20 147q0 59 -12.5 113t-37.5 98.5t-66.5 71t-94.5 26.5q-51 0 -90.5 -23.5t-63.5 -63.5t-36 -90t-12 -106zM30 338q0 56 16 109 t49.5 101.5t81 85t116 58t149.5 21.5q78 0 142 -20t106 -53t70.5 -77.5t41 -91.5t12.5 -96q0 -55 -16 -109t-49.5 -104.5t-80.5 -89t-116 -62t-149 -23.5q-75 0 -138 20.5t-105.5 54.5t-72 79.5t-43.5 95t-14 101.5z" />
<glyph unicode="&#xd5;" d="M214 371q0 -83 24.5 -155.5t75.5 -121t119 -48.5q64 0 109 43t65 109t20 147q0 59 -12.5 113t-37.5 98.5t-66.5 71t-94.5 26.5q-51 0 -90.5 -23.5t-63.5 -63.5t-36 -90t-12 -106zM30 338q0 56 16 109t49.5 101.5t81 85t116 58t149.5 21.5q78 0 142 -20t106 -53 t70.5 -77.5t41 -91.5t12.5 -96q0 -55 -16 -109t-49.5 -104.5t-80.5 -89t-116 -62t-149 -23.5q-75 0 -138 20.5t-105.5 54.5t-72 79.5t-43.5 95t-14 101.5zM277 766l-51 11q0 5 1.5 13.5t9 30.5t19 39t35.5 30.5t55 13.5q39 0 89.5 -25t73.5 -25t37.5 12.5t17.5 24.5l3 13 l53 -6q-1 -6 -1.5 -14.5t-8 -31.5t-19 -40t-37 -31.5t-58.5 -14.5t-63 13t-55 25.5t-44 12.5q-22 0 -36 -12.5t-17 -25.5z" />
<glyph unicode="&#xd6;" d="M214 371q0 -83 24.5 -155.5t75.5 -121t119 -48.5q64 0 109 43t65 109t20 147q0 59 -12.5 113t-37.5 98.5t-66.5 71t-94.5 26.5q-51 0 -90.5 -23.5t-63.5 -63.5t-36 -90t-12 -106zM30 338q0 56 16 109t49.5 101.5t81 85t116 58t149.5 21.5q78 0 142 -20t106 -53 t70.5 -77.5t41 -91.5t12.5 -96q0 -55 -16 -109t-49.5 -104.5t-80.5 -89t-116 -62t-149 -23.5q-75 0 -138 20.5t-105.5 54.5t-72 79.5t-43.5 95t-14 101.5zM204 835q0 36 22 56.5t60 20.5q36 0 59 -20.5t23 -56.5q0 -35 -23 -56t-59 -21q-38 0 -60 21t-22 56zM480 835 q0 36 22 56.5t59 20.5t59.5 -20.5t22.5 -56.5q0 -35 -22.5 -56t-59.5 -21t-59 21t-22 56z" />
<glyph unicode="&#xd7;" horiz-adv-x="546" d="M29 455l61 56l182 -180l184 183l57 -59l-181 -183l191 -190l-60 -59l-191 189l-189 -190l-59 60l189 189z" />
<glyph unicode="&#xd8;" d="M30 338q0 56 16 109t49.5 101.5t81 85t116 58t149.5 21.5q106 0 186 -37l42 56h72l-64 -84q68 -48 102 -121t34 -152q0 -55 -16 -109t-49.5 -104.5t-80.5 -89t-116 -62t-149 -23.5q-111 0 -194 43l-47 -62h-74l72 94q-64 49 -97 122.5t-33 153.5zM627 345q0 107 -37 186 l-306 -403q59 -82 149 -82q64 0 109 43t65 109t20 147zM214 371q0 -105 38 -187l306 400q-55 70 -142 70q-51 0 -90.5 -23.5t-63.5 -63.5t-36 -90t-12 -106z" />
<glyph unicode="&#xd9;" horiz-adv-x="771" d="M258 801v34l51 86h5l211 -124l-23 -48zM81 245v344q0 23 -1 32t-7.5 19t-19 15t-36.5 11v34h68q69 0 117.5 1t62.5 2l14 2l6 -5q-4 -4 -10 -14t-15.5 -45t-9.5 -76v-312q0 -49 16 -88t43 -62t59 -34.5t68 -11.5q73 0 124.5 50.5t51.5 138.5v338q0 21 -1.5 31t-8.5 21.5 t-23 17t-43 9.5v37h220l5 -23q-3 -1 -8 -3.5t-18 -12t-23 -21.5t-18 -33t-8 -45v-313q0 -127 -81 -194.5t-210 -67.5q-45 0 -88 8.5t-84.5 28t-72.5 48.5t-50 73.5t-19 99.5z" />
<glyph unicode="&#xda;" horiz-adv-x="771" d="M81 245v344q0 23 -1 32t-7.5 19t-19 15t-36.5 11v34h68q69 0 117.5 1t62.5 2l14 2l6 -5q-4 -4 -10 -14t-15.5 -45t-9.5 -76v-312q0 -49 16 -88t43 -62t59 -34.5t68 -11.5q73 0 124.5 50.5t51.5 138.5v338q0 21 -1.5 31t-8.5 21.5t-23 17t-43 9.5v37h220l5 -23 q-3 -1 -8 -3.5t-18 -12t-23 -21.5t-18 -33t-8 -45v-313q0 -127 -81 -194.5t-210 -67.5q-45 0 -88 8.5t-84.5 28t-72.5 48.5t-50 73.5t-19 99.5zM277 797l211 124h6l51 -86v-34l-244 -52z" />
<glyph unicode="&#xdb;" horiz-adv-x="771" d="M214 789l143 126h89l142 -126l-40 -37l-140 69h-14l-140 -69zM81 245v344q0 23 -1 32t-7.5 19t-19 15t-36.5 11v34h68q69 0 117.5 1t62.5 2l14 2l6 -5q-4 -4 -10 -14t-15.5 -45t-9.5 -76v-312q0 -49 16 -88t43 -62t59 -34.5t68 -11.5q73 0 124.5 50.5t51.5 138.5v338 q0 21 -1.5 31t-8.5 21.5t-23 17t-43 9.5v37h220l5 -23q-3 -1 -8 -3.5t-18 -12t-23 -21.5t-18 -33t-8 -45v-313q0 -127 -81 -194.5t-210 -67.5q-45 0 -88 8.5t-84.5 28t-72.5 48.5t-50 73.5t-19 99.5z" />
<glyph unicode="&#xdc;" horiz-adv-x="771" d="M81 245v344q0 23 -1 32t-7.5 19t-19 15t-36.5 11v34h68q69 0 117.5 1t62.5 2l14 2l6 -5q-4 -4 -10 -14t-15.5 -45t-9.5 -76v-312q0 -49 16 -88t43 -62t59 -34.5t68 -11.5q73 0 124.5 50.5t51.5 138.5v338q0 21 -1.5 31t-8.5 21.5t-23 17t-43 9.5v37h220l5 -23 q-3 -1 -8 -3.5t-18 -12t-23 -21.5t-18 -33t-8 -45v-313q0 -127 -81 -194.5t-210 -67.5q-45 0 -88 8.5t-84.5 28t-72.5 48.5t-50 73.5t-19 99.5zM183 835q0 36 22 56.5t60 20.5q36 0 58.5 -20.5t22.5 -56.5q0 -35 -22.5 -56t-58.5 -21q-38 0 -60 21t-22 56zM459 835 q0 36 22 56.5t59 20.5t59.5 -20.5t22.5 -56.5q0 -35 -22.5 -56t-59.5 -21t-59 21t-22 56z" />
<glyph unicode="&#xdd;" horiz-adv-x="618" d="M161 -3v42q32 4 49.5 22.5t17.5 47.5v201l-188 310q-11 18 -23.5 29.5t-19.5 13.5l-7 3v34h53q49 0 92 1t62 2l19 2l4 -5q-1 -4 -3.5 -12t-2.5 -28t9 -35l107 -187q7 -13 28 -58l133 221q8 14 9 27t-12 23.5t-39 14.5v34h178l6 -23q-23 -11 -52 -57l-185 -293h1v-218 q0 -14 -1.5 -29t-2.5 -22l-1 -8l86 -9l-4 -38zM196 797l211 124h6l51 -86v-34l-244 -52z" />
<glyph unicode="&#xde;" horiz-adv-x="631" d="M349 162v46q89 14 89 127q0 66 -32.5 106.5t-81.5 40.5h-28l-15 -14v-359q0 -14 -1 -29t-3 -22l-1 -8l84 -9l-4 -38l-311 -6v42q32 4 49.5 22.5t17.5 47.5v480q0 23 -1 32t-7.5 19t-20 15t-40.5 11v34h74q68 0 116.5 1t62.5 2l15 2l5 -5q-4 -5 -9.5 -15.5t-15.5 -45.5 t-10 -74v-20h53q53 0 102 -9.5t92 -28t69 -52t26 -76.5q0 -60 -37 -113t-101 -82t-136 -22z" />
<glyph unicode="&#xdf;" horiz-adv-x="636" d="M27 -3v30q57 8 57 65v313h-62v54l62 23v32q0 46 18 90t50.5 80.5t83.5 58.5t113 22q82 0 137 -32t55 -97q0 -30 -17 -61t-37.5 -52.5t-37 -45t-16.5 -39.5q0 -18 19.5 -37.5t48 -40t56.5 -45t48 -62.5t20 -84q0 -76 -50 -129t-139 -53q-23 0 -46.5 4t-47 12t-38 24.5 t-14.5 38.5q0 11 3.5 29t7.5 30l3 13h44q9 -51 32 -77t52 -26q24 0 41.5 16.5t17.5 42.5q0 27 -17.5 50.5t-43 43t-51 41.5t-43.5 55.5t-18 74.5q0 31 11 57.5t26.5 45.5l31 38t26.5 45t11 57q0 43 -20 74.5t-64 31.5q-55 0 -74 -39.5t-19 -136.5v-476q0 -14 1 -27t2 -18 l1 -6l-3 -3z" />
<glyph unicode="&#xe0;" horiz-adv-x="518" d="M15 111q0 39 20 70.5t54.5 52t72.5 33t81 19.5l36 5v5v30.5t-0.5 26.5t-1.5 25.5t-3 20.5t-5.5 17.5t-8 12t-11.5 9t-15 2.5q-24 0 -47.5 -29.5t-35.5 -59.5l-11 -30h-57l-26 100q3 3 10 8t30.5 17.5t49.5 22t66.5 17.5t82.5 8q85 0 115 -33.5t30 -117.5v-233 q0 -49 23 -49q7 0 15.5 3t13.5 6l5 2l19 -31q-2 -2 -6 -5.5t-17.5 -13t-28 -16.5t-37.5 -13t-47 -6q-46 0 -72.5 18.5t-26.5 50.5v11q-2 -3 -6 -8.5t-17.5 -19t-28.5 -24t-38 -19.5t-46 -9t-45 7t-42 21t-32 39t-12 57zM177 143q0 -30 14 -45t36 -15q23 0 51 17v136l-26 -5 q-39 -8 -57 -29t-18 -59zM93 722v29l149 -13l73 -179l-47 -26z" />
<glyph unicode="&#xe1;" horiz-adv-x="518" d="M15 111q0 39 20 70.5t54.5 52t72.5 33t81 19.5l36 5v5v30.5t-0.5 26.5t-1.5 25.5t-3 20.5t-5.5 17.5t-8 12t-11.5 9t-15 2.5q-24 0 -47.5 -29.5t-35.5 -59.5l-11 -30h-57l-26 100q3 3 10 8t30.5 17.5t49.5 22t66.5 17.5t82.5 8q85 0 115 -33.5t30 -117.5v-233 q0 -49 23 -49q7 0 15.5 3t13.5 6l5 2l19 -31q-2 -2 -6 -5.5t-17.5 -13t-28 -16.5t-37.5 -13t-47 -6q-46 0 -72.5 18.5t-26.5 50.5v11q-2 -3 -6 -8.5t-17.5 -19t-28.5 -24t-38 -19.5t-46 -9t-45 7t-42 21t-32 39t-12 57zM177 143q0 -30 14 -45t36 -15q23 0 51 17v136l-26 -5 q-39 -8 -57 -29t-18 -59zM238 533l-48 26l75 179l148 13v-29z" />
<glyph unicode="&#xe2;" horiz-adv-x="518" d="M15 111q0 39 20 70.5t54.5 52t72.5 33t81 19.5l36 5v5v30.5t-0.5 26.5t-1.5 25.5t-3 20.5t-5.5 17.5t-8 12t-11.5 9t-15 2.5q-24 0 -47.5 -29.5t-35.5 -59.5l-11 -30h-57l-26 100q3 3 10 8t30.5 17.5t49.5 22t66.5 17.5t82.5 8q85 0 115 -33.5t30 -117.5v-233 q0 -49 23 -49q7 0 15.5 3t13.5 6l5 2l19 -31q-2 -2 -6 -5.5t-17.5 -13t-28 -16.5t-37.5 -13t-47 -6q-46 0 -72.5 18.5t-26.5 50.5v11q-2 -3 -6 -8.5t-17.5 -19t-28.5 -24t-38 -19.5t-46 -9t-45 7t-42 21t-32 39t-12 57zM177 143q0 -30 14 -45t36 -15q23 0 51 17v136l-26 -5 q-39 -8 -57 -29t-18 -59zM91 559l131 185h64l127 -185l-43 -31l-117 111l-117 -111z" />
<glyph unicode="&#xe3;" horiz-adv-x="518" d="M15 111q0 39 20 70.5t54.5 52t72.5 33t81 19.5l36 5v5v30.5t-0.5 26.5t-1.5 25.5t-3 20.5t-5.5 17.5t-8 12t-11.5 9t-15 2.5q-24 0 -47.5 -29.5t-35.5 -59.5l-11 -30h-57l-26 100q3 3 10 8t30.5 17.5t49.5 22t66.5 17.5t82.5 8q85 0 115 -33.5t30 -117.5v-233 q0 -49 23 -49q7 0 15.5 3t13.5 6l5 2l19 -31q-2 -2 -6 -5.5t-17.5 -13t-28 -16.5t-37.5 -13t-47 -6q-46 0 -72.5 18.5t-26.5 50.5v11q-2 -3 -6 -8.5t-17.5 -19t-28.5 -24t-38 -19.5t-46 -9t-45 7t-42 21t-32 39t-12 57zM177 143q0 -30 14 -45t36 -15q23 0 51 17v136l-26 -5 q-39 -8 -57 -29t-18 -59zM78 582q-1 3 -1.5 9t-0.5 22.5t2 31.5t8.5 33.5t17.5 31.5t30.5 22t46.5 9q25 0 47.5 -11.5t35.5 -25.5t29.5 -25.5t30.5 -11.5q18 0 29.5 7t16 16.5t7 19.5t1.5 17v7h55q0 -3 0.5 -9t0.5 -22.5t-2.5 -32t-9.5 -34t-18.5 -31.5t-32 -22.5 t-47.5 -9.5q-24 0 -45.5 12t-34 26t-28.5 25.5t-30 11.5q-18 0 -30 -7t-16.5 -16.5t-7 -19.5t-1.5 -16v-7h-53z" />
<glyph unicode="&#xe4;" horiz-adv-x="518" d="M15 111q0 39 20 70.5t54.5 52t72.5 33t81 19.5l36 5v5v30.5t-0.5 26.5t-1.5 25.5t-3 20.5t-5.5 17.5t-8 12t-11.5 9t-15 2.5q-24 0 -47.5 -29.5t-35.5 -59.5l-11 -30h-57l-26 100q3 3 10 8t30.5 17.5t49.5 22t66.5 17.5t82.5 8q85 0 115 -33.5t30 -117.5v-233 q0 -49 23 -49q7 0 15.5 3t13.5 6l5 2l19 -31q-2 -2 -6 -5.5t-17.5 -13t-28 -16.5t-37.5 -13t-47 -6q-46 0 -72.5 18.5t-26.5 50.5v11q-2 -3 -6 -8.5t-17.5 -19t-28.5 -24t-38 -19.5t-46 -9t-45 7t-42 21t-32 39t-12 57zM177 143q0 -30 14 -45t36 -15q23 0 51 17v136l-26 -5 q-39 -8 -57 -29t-18 -59zM121 581q-37 0 -59.5 20.5t-22.5 55.5q0 36 22.5 57.5t59.5 21.5t59.5 -21.5t22.5 -57.5q0 -35 -22.5 -55.5t-59.5 -20.5zM386 581q-37 0 -59.5 20.5t-22.5 55.5q0 36 22.5 57.5t59.5 21.5t59 -21.5t22 -57.5q0 -35 -22 -55.5t-59 -20.5z" />
<glyph unicode="&#xe5;" horiz-adv-x="518" d="M15 111q0 39 20 70.5t54.5 52t72.5 33t81 19.5l36 5v5v30.5t-0.5 26.5t-1.5 25.5t-3 20.5t-5.5 17.5t-8 12t-11.5 9t-15 2.5q-24 0 -47.5 -29.5t-35.5 -59.5l-11 -30h-57l-26 100q3 3 10 8t30.5 17.5t49.5 22t66.5 17.5t82.5 8q85 0 115 -33.5t30 -117.5v-233 q0 -49 23 -49q7 0 15.5 3t13.5 6l5 2l19 -31q-2 -2 -6 -5.5t-17.5 -13t-28 -16.5t-37.5 -13t-47 -6q-46 0 -72.5 18.5t-26.5 50.5v11q-2 -3 -6 -8.5t-17.5 -19t-28.5 -24t-38 -19.5t-46 -9t-45 7t-42 21t-32 39t-12 57zM177 143q0 -30 14 -45t36 -15q23 0 51 17v136l-26 -5 q-39 -8 -57 -29t-18 -59zM253 561q-54 0 -82 31.5t-28 69.5q0 37 28 66.5t82 29.5t82 -29.5t28 -66.5q0 -38 -28 -69.5t-82 -31.5zM253 612q21 0 34 14t13 34t-12 33.5t-35 13.5t-34.5 -13t-11.5 -34q0 -20 12 -34t34 -14z" />
<glyph unicode="&#xe6;" horiz-adv-x="743" d="M12 110q0 43 22.5 77t62.5 55t86.5 34t101.5 19v24q0 26 -1.5 43t-5.5 37.5t-13.5 30.5t-24.5 10q-24 0 -48 -29.5t-36 -59.5l-11 -30h-57l-26 100q4 3 11 8t31 17.5t49 22t63 17.5t75 8q33 0 56.5 -7t33 -13.5t22.5 -18.5q65 39 128 39q77 0 131.5 -49.5t57.5 -147.5 q-50 -18 -82 -21l-206 -20q2 -31 12 -58t28 -50.5t47.5 -37t68.5 -13.5q33 0 63 9t44 18l14 9l12 -35q-2 -5 -7 -12.5t-23 -26.5t-39.5 -33.5t-57.5 -26.5t-76 -12q-126 0 -195 111q-21 -51 -64.5 -81t-99.5 -30q-60 0 -103.5 31.5t-43.5 91.5zM218 84q22 0 38 19t22 38.5 t6 34.5v64q-65 -9 -88 -33t-23 -58q0 -29 12 -47t33 -18zM508 437q-30 0 -49 -35t-26 -91l133 11q0 9 -1.5 21.5t-6 37t-17.5 40.5t-33 16z" />
<glyph unicode="&#xe7;" horiz-adv-x="473" d="M168 -96q0 33 36 89q-84 16 -133 81.5t-49 150.5q0 47 17.5 94t49.5 86.5t83.5 64t114.5 24.5q26 0 53.5 -4.5t55 -13.5t45 -27t17.5 -41.5t-16.5 -41.5t-41.5 -18q-21 0 -37 14.5t-25 32t-27 32t-43 14.5q-46 0 -72 -46.5t-26 -115.5q0 -83 39.5 -132.5t111.5 -49.5 q31 0 62.5 8t47.5 16l16 8l13 -36q-3 -4 -8 -11t-23 -25.5t-40 -32.5t-58.5 -25.5t-77.5 -11.5h-7q-6 -26 -6 -29q0 -9 16 -17.5t35 -16t35 -25.5t16 -43q0 -46 -36 -75.5t-94 -29.5q-33 0 -60.5 10.5t-38.5 20.5l-11 10l19 45q36 -29 79 -29q16 0 30 6t14 18q0 11 -12 20 t-26 14.5t-26 15.5t-12 22z" />
<glyph unicode="&#xe8;" horiz-adv-x="486" d="M22 232q0 109 72 185.5t178 76.5q81 0 134.5 -48t56.5 -147q-60 -21 -81 -24l-198 -30l-9 -14q28 -134 157 -134q31 0 60 9t43 18l14 9l14 -35q-2 -5 -7 -12.5t-22 -26.5t-37.5 -33.5t-55 -26.5t-72.5 -12q-76 0 -133.5 35.5t-85.5 90.5t-28 119zM247 437 q-33 0 -54.5 -40t-22.5 -98l143 18q0 5 -0.5 13t-4 28.5t-10 36.5t-20 29t-31.5 13zM87 721v29l148 -13l74 -179l-48 -26z" />
<glyph unicode="&#xe9;" horiz-adv-x="486" d="M232 532l-48 26l74 179l148 13v-29zM22 232q0 109 72 185.5t178 76.5q81 0 134.5 -48t56.5 -147q-60 -21 -81 -24l-198 -30l-9 -14q28 -134 157 -134q31 0 60 9t43 18l14 9l14 -35q-2 -5 -7 -12.5t-22 -26.5t-37.5 -33.5t-55 -26.5t-72.5 -12q-76 0 -133.5 35.5 t-85.5 90.5t-28 119zM247 437q-33 0 -54.5 -40t-22.5 -98l143 18q0 5 -0.5 13t-4 28.5t-10 36.5t-20 29t-31.5 13z" />
<glyph unicode="&#xea;" horiz-adv-x="486" d="M86 558l130 185h64l127 -185l-43 -31l-116 111l-117 -111zM22 232q0 109 72 185.5t178 76.5q81 0 134.5 -48t56.5 -147q-60 -21 -81 -24l-198 -30l-9 -14q28 -134 157 -134q31 0 60 9t43 18l14 9l14 -35q-2 -5 -7 -12.5t-22 -26.5t-37.5 -33.5t-55 -26.5t-72.5 -12 q-76 0 -133.5 35.5t-85.5 90.5t-28 119zM247 437q-33 0 -54.5 -40t-22.5 -98l143 18q0 5 -0.5 13t-4 28.5t-10 36.5t-20 29t-31.5 13z" />
<glyph unicode="&#xeb;" horiz-adv-x="486" d="M116 580q-37 0 -59.5 20.5t-22.5 55.5q0 36 22.5 57.5t59.5 21.5t59 -21.5t22 -57.5q0 -35 -22 -55.5t-59 -20.5zM381 580q-37 0 -59.5 20.5t-22.5 55.5q0 36 22.5 57.5t59.5 21.5t59 -21.5t22 -57.5q0 -35 -22 -55.5t-59 -20.5zM22 232q0 109 72 185.5t178 76.5 q81 0 134.5 -48t56.5 -147q-60 -21 -81 -24l-198 -30l-9 -14q28 -134 157 -134q31 0 60 9t43 18l14 9l14 -35q-2 -5 -7 -12.5t-22 -26.5t-37.5 -33.5t-55 -26.5t-72.5 -12q-76 0 -133.5 35.5t-85.5 90.5t-28 119zM247 437q-33 0 -54.5 -40t-22.5 -98l143 18q0 5 -0.5 13 t-4 28.5t-10 36.5t-20 29t-31.5 13z" />
<glyph unicode="&#xec;" horiz-adv-x="321" d="M28 -3v39q52 7 52 68v245q0 19 -1 28.5t-3.5 20t-9.5 15t-18 4.5h-33v37q45 5 103 18.5t93 24.5l35 11l5 -3q-8 -35 -8 -120v-281q0 -14 -1.5 -28t-2.5 -22l-2 -7l76 -9l-4 -35zM-7 722v29l148 -13l73 -179l-47 -26z" />
<glyph unicode="&#xed;" horiz-adv-x="321" d="M138 533l-49 26l75 179l148 13v-29zM28 -3v39q52 7 52 68v245q0 19 -1 28.5t-3.5 20t-9.5 15t-18 4.5h-33v37q45 5 103 18.5t93 24.5l35 11l5 -3q-8 -35 -8 -120v-281q0 -14 -1.5 -28t-2.5 -22l-2 -7l76 -9l-4 -35z" />
<glyph unicode="&#xee;" horiz-adv-x="321" d="M-9 559l130 185h64l127 -185l-43 -31l-117 111l-116 -111zM28 -3v39q52 7 52 68v245q0 19 -1 28.5t-3.5 20t-9.5 15t-18 4.5h-33v37q45 5 103 18.5t93 24.5l35 11l5 -3q-8 -35 -8 -120v-281q0 -14 -1.5 -28t-2.5 -22l-2 -7l76 -9l-4 -35z" />
<glyph unicode="&#xef;" horiz-adv-x="321" d="M-41 657q0 36 22.5 57.5t59.5 21.5t59.5 -21.5t22.5 -57.5q0 -35 -22.5 -55.5t-59.5 -20.5t-59.5 20.5t-22.5 55.5zM180 657q0 36 22 57.5t58 21.5q38 0 60 -21.5t22 -57.5q0 -35 -22 -55.5t-60 -20.5q-36 0 -58 20.5t-22 55.5zM28 -3v39q52 7 52 68v245q0 19 -1 28.5 t-3.5 20t-9.5 15t-18 4.5h-33v37q45 5 103 18.5t93 24.5l35 11l5 -3q-8 -35 -8 -120v-281q0 -14 -1.5 -28t-2.5 -22l-2 -7l76 -9l-4 -35z" />
<glyph unicode="&#xf0;" horiz-adv-x="567" d="M116 530l-28 52l124 67q-59 57 -145 89l13 44q121 -22 223 -83l154 83l26 -51l-127 -68q85 -70 131 -166t46 -202q0 -134 -72 -221t-199 -87q-112 0 -176.5 68.5t-64.5 166.5q0 68 32 130t89.5 102t126.5 40q27 0 52 -7q-29 69 -69 118zM187 237q0 -32 4.5 -65t14 -63.5 t26 -49.5t38.5 -19q42 0 69 63t27 167q0 33 -3.5 61.5t-11.5 53.5t-23 39.5t-36 14.5q-45 0 -75 -57.5t-30 -144.5z" />
<glyph unicode="&#xf1;" horiz-adv-x="618" d="M28 -3v39q52 7 52 68v245q0 19 -1 28.5t-3.5 20t-9.5 15t-18 4.5h-33v37q58 8 116.5 22t86.5 23l29 9l3 -3q-10 -17 -17 -110q80 99 180 99q58 0 93 -35t35 -107v-248q0 -14 -1.5 -28t-2.5 -21l-1 -7l75 -10l-4 -35l-269 -6v39q40 7 40 68v196q0 52 -11 68t-43 16 q-44 0 -81 -19v-261q0 -14 -1.5 -28t-2.5 -21l-2 -7l56 -10l-4 -35zM134 582q0 3 -0.5 9t-1 22.5t1.5 31.5t9 33.5t18 31.5t30.5 22t45.5 9q25 0 47.5 -11.5t36 -25.5t30 -25.5t30.5 -11.5q17 0 29 7t16.5 16.5t6.5 19.5t2 17v7h54q1 -3 1.5 -9t0.5 -22.5t-2.5 -32t-10 -34 t-18.5 -31.5t-31.5 -22.5t-47.5 -9.5q-25 0 -46.5 12t-34 26t-28 25.5t-29.5 11.5q-18 0 -30 -7t-17 -16.5t-7 -19.5t-2 -16l1 -7h-54z" />
<glyph unicode="&#xf2;" horiz-adv-x="583" d="M22 231q0 48 16.5 93.5t48 84t86 62t123.5 23.5q120 0 193 -65t73 -171q0 -51 -18 -98.5t-51.5 -86.5t-87.5 -62.5t-120 -23.5q-117 0 -190 67.5t-73 176.5zM195 260q0 -54 10.5 -102t36 -83t60.5 -35q26 0 44 17t26.5 45.5t11.5 54.5t3 55q0 39 -4.5 76t-15.5 73t-32 58 t-50 22q-44 0 -67 -52t-23 -129zM133 722v29l148 -13l74 -179l-47 -26z" />
<glyph unicode="&#xf3;" horiz-adv-x="583" d="M278 533l-48 26l74 179l149 13v-29zM22 231q0 48 16.5 93.5t48 84t86 62t123.5 23.5q120 0 193 -65t73 -171q0 -51 -18 -98.5t-51.5 -86.5t-87.5 -62.5t-120 -23.5q-117 0 -190 67.5t-73 176.5zM195 260q0 -54 10.5 -102t36 -83t60.5 -35q26 0 44 17t26.5 45.5t11.5 54.5 t3 55q0 39 -4.5 76t-15.5 73t-32 58t-50 22q-44 0 -67 -52t-23 -129z" />
<glyph unicode="&#xf4;" horiz-adv-x="583" d="M131 559l130 185h65l127 -185l-43 -31l-117 111l-117 -111zM22 231q0 48 16.5 93.5t48 84t86 62t123.5 23.5q120 0 193 -65t73 -171q0 -51 -18 -98.5t-51.5 -86.5t-87.5 -62.5t-120 -23.5q-117 0 -190 67.5t-73 176.5zM195 260q0 -54 10.5 -102t36 -83t60.5 -35 q26 0 44 17t26.5 45.5t11.5 54.5t3 55q0 39 -4.5 76t-15.5 73t-32 58t-50 22q-44 0 -67 -52t-23 -129z" />
<glyph unicode="&#xf5;" horiz-adv-x="583" d="M22 231q0 48 16.5 93.5t48 84t86 62t123.5 23.5q120 0 193 -65t73 -171q0 -51 -18 -98.5t-51.5 -86.5t-87.5 -62.5t-120 -23.5q-117 0 -190 67.5t-73 176.5zM195 260q0 -54 10.5 -102t36 -83t60.5 -35q26 0 44 17t26.5 45.5t11.5 54.5t3 55q0 39 -4.5 76t-15.5 73t-32 58 t-50 22q-44 0 -67 -52t-23 -129zM117 582q-1 3 -1.5 9t-0.5 22.5t2 31.5t8.5 33.5t17.5 31.5t30.5 22t45.5 9t48.5 -11.5t35.5 -25.5t29.5 -25.5t30.5 -11.5q17 0 29 7t16.5 16.5t7 19.5t1.5 17v7h54q1 -3 1.5 -9t0.5 -22.5t-2.5 -32t-9.5 -34t-18.5 -31.5t-32 -22.5 t-47.5 -9.5q-25 0 -46.5 12t-34 26t-28 25.5t-29.5 11.5q-18 0 -30 -7t-17 -16.5t-7 -19.5t-1 -16v-7h-53z" />
<glyph unicode="&#xf6;" horiz-adv-x="583" d="M161 581q-37 0 -59.5 20.5t-22.5 55.5q0 36 22.5 57.5t59.5 21.5t59.5 -21.5t22.5 -57.5q0 -35 -22.5 -55.5t-59.5 -20.5zM426 581q-37 0 -59.5 20.5t-22.5 55.5q0 36 22.5 57.5t59.5 21.5t59 -21.5t22 -57.5q0 -35 -22 -55.5t-59 -20.5zM22 231q0 48 16.5 93.5t48 84 t86 62t123.5 23.5q120 0 193 -65t73 -171q0 -51 -18 -98.5t-51.5 -86.5t-87.5 -62.5t-120 -23.5q-117 0 -190 67.5t-73 176.5zM195 260q0 -54 10.5 -102t36 -83t60.5 -35q26 0 44 17t26.5 45.5t11.5 54.5t3 55q0 39 -4.5 76t-15.5 73t-32 58t-50 22q-44 0 -67 -52t-23 -129z " />
<glyph unicode="&#xf7;" horiz-adv-x="546" d="M38 226v84h470v-84h-470zM195 74q0 33 23 57t55 24q34 0 57 -23.5t23 -57.5q0 -33 -23 -55.5t-57 -22.5q-32 0 -55 22.5t-23 55.5zM273 381q-32 0 -55 23.5t-23 56t23 56.5t55 24q34 0 57 -23.5t23 -56.5t-23 -56.5t-57 -23.5z" />
<glyph unicode="&#xf8;" horiz-adv-x="583" d="M50 -32l57 76q-85 68 -85 187q0 48 16.5 93.5t48 84t86 62t123.5 23.5q71 0 127 -25l33 43h68l-53 -70q91 -67 91 -184q0 -51 -18 -98.5t-51.5 -86.5t-87.5 -62.5t-120 -23.5q-70 0 -132 28l-34 -47h-69zM386 244q-2 42 -8 72l-155 -209q28 -67 79 -67q31 0 50.5 24.5 t25 58t8.5 67.5t0 54zM195 260q0 -47 8 -87l155 208q-26 60 -73 60q-44 0 -67 -52t-23 -129z" />
<glyph unicode="&#xf9;" horiz-adv-x="602" d="M65 130v215q0 21 -0.5 31.5t-3.5 21t-9.5 15t-17.5 4.5h-24v38l225 44l2 -3q-9 -30 -9 -111v-207q0 -50 14 -70t39 -20q19 0 38 8t29 17l10 8v224q0 21 -0.5 31.5t-3.5 21t-9.5 15t-17.5 4.5h-21v40l222 42l2 -3q-9 -30 -9 -111v-277q0 -22 3.5 -34.5t13 -18t17.5 -6.5 t25 -1h15l-3 -36q-67 -6 -124.5 -11t-81.5 -8l-24 -2l-1 1q7 32 7 58v37q-3 -4 -7.5 -10.5t-20.5 -24t-33.5 -30.5t-45 -24t-55.5 -11q-62 0 -101.5 36t-39.5 107zM133 722v29l148 -13l74 -179l-47 -26z" />
<glyph unicode="&#xfa;" horiz-adv-x="602" d="M278 533l-48 26l74 179l149 13v-29zM65 130v215q0 21 -0.5 31.5t-3.5 21t-9.5 15t-17.5 4.5h-24v38l225 44l2 -3q-9 -30 -9 -111v-207q0 -50 14 -70t39 -20q19 0 38 8t29 17l10 8v224q0 21 -0.5 31.5t-3.5 21t-9.5 15t-17.5 4.5h-21v40l222 42l2 -3q-9 -30 -9 -111v-277 q0 -22 3.5 -34.5t13 -18t17.5 -6.5t25 -1h15l-3 -36q-67 -6 -124.5 -11t-81.5 -8l-24 -2l-1 1q7 32 7 58v37q-3 -4 -7.5 -10.5t-20.5 -24t-33.5 -30.5t-45 -24t-55.5 -11q-62 0 -101.5 36t-39.5 107z" />
<glyph unicode="&#xfb;" horiz-adv-x="602" d="M130 559l130 185h64l128 -185l-44 -31l-116 111l-117 -111zM65 130v215q0 21 -0.5 31.5t-3.5 21t-9.5 15t-17.5 4.5h-24v38l225 44l2 -3q-9 -30 -9 -111v-207q0 -50 14 -70t39 -20q19 0 38 8t29 17l10 8v224q0 21 -0.5 31.5t-3.5 21t-9.5 15t-17.5 4.5h-21v40l222 42 l2 -3q-9 -30 -9 -111v-277q0 -22 3.5 -34.5t13 -18t17.5 -6.5t25 -1h15l-3 -36q-67 -6 -124.5 -11t-81.5 -8l-24 -2l-1 1q7 32 7 58v37q-3 -4 -7.5 -10.5t-20.5 -24t-33.5 -30.5t-45 -24t-55.5 -11q-62 0 -101.5 36t-39.5 107z" />
<glyph unicode="&#xfc;" horiz-adv-x="602" d="M160 581q-37 0 -59.5 20.5t-22.5 55.5q0 36 22.5 57.5t59.5 21.5t59.5 -21.5t22.5 -57.5q0 -35 -22.5 -55.5t-59.5 -20.5zM425 581q-37 0 -59.5 20.5t-22.5 55.5q0 36 22.5 57.5t59.5 21.5t59 -21.5t22 -57.5q0 -35 -22 -55.5t-59 -20.5zM65 130v215q0 21 -0.5 31.5 t-3.5 21t-9.5 15t-17.5 4.5h-24v38l225 44l2 -3q-9 -30 -9 -111v-207q0 -50 14 -70t39 -20q19 0 38 8t29 17l10 8v224q0 21 -0.5 31.5t-3.5 21t-9.5 15t-17.5 4.5h-21v40l222 42l2 -3q-9 -30 -9 -111v-277q0 -22 3.5 -34.5t13 -18t17.5 -6.5t25 -1h15l-3 -36 q-67 -6 -124.5 -11t-81.5 -8l-24 -2l-1 1q7 32 7 58v37q-3 -4 -7.5 -10.5t-20.5 -24t-33.5 -30.5t-45 -24t-55.5 -11q-62 0 -101.5 36t-39.5 107z" />
<glyph unicode="&#xfd;" horiz-adv-x="500" d="M86 -130q51 0 84 22t58 76q-31 79 -37 91l-146 326q-10 24 -24.5 39t-23.5 19l-10 3v35h45q49 0 94 1t65 2l21 1l4 -4q-9 -21 -10 -47t8 -50l72 -171q10 -26 20 -61l92 219q12 27 -6.5 46.5t-51.5 28.5v35h159l5 -17q-14 -17 -30 -56l-146 -346l-9 -21q-14 -32 -22 -50.5 t-25 -53t-30.5 -56t-34.5 -49t-40.5 -43.5t-45 -27t-51.5 -11q-30 0 -47 16.5t-17 42.5q0 25 19 42.5t61 17.5zM267 533l-49 26l75 179l148 13v-29z" />
<glyph unicode="&#xfe;" horiz-adv-x="572" d="M228 101q0 -52 41 -52q38 0 64.5 27t37.5 65.5t11 84.5q0 29 -5 56.5t-16 53.5t-31.5 41.5t-48.5 15.5q-21 0 -53 -8v-284zM65 -117v746q0 19 -0.5 29t-3.5 20.5t-9.5 14.5t-17.5 4h-36v37q87 17 146 31t75 19.5t16 6.5l3 -3q-10 -37 -10 -118v-165q0 -19 -1.5 -41.5 t-2.5 -35.5l-1 -13q20 26 40 43.5t39 24.5t31 9t27 2q78 0 134 -62.5t56 -158.5q0 -53 -19 -103.5t-53 -91.5t-87 -66t-116 -25q-19 0 -47 4v-107q0 -13 -1.5 -28t-2.5 -23l-1 -8h101l-4 -34q-199 -25 -301 -50v39q29 18 37.5 40.5t8.5 62.5z" />
<glyph unicode="&#xff;" horiz-adv-x="500" d="M86 -130q51 0 84 22t58 76q-31 79 -37 91l-146 326q-10 24 -24.5 39t-23.5 19l-10 3v35h45q49 0 94 1t65 2l21 1l4 -4q-9 -21 -10 -47t8 -50l72 -171q10 -26 20 -61l92 219q12 27 -6.5 46.5t-51.5 28.5v35h159l5 -17q-14 -17 -30 -56l-146 -346l-9 -21q-14 -32 -22 -50.5 t-25 -53t-30.5 -56t-34.5 -49t-40.5 -43.5t-45 -27t-51.5 -11q-30 0 -47 16.5t-17 42.5q0 25 19 42.5t61 17.5zM142 581q-37 0 -59.5 20.5t-22.5 55.5q0 36 22.5 57.5t59.5 21.5t59.5 -21.5t22.5 -57.5q0 -35 -22.5 -55.5t-59.5 -20.5zM407 581q-37 0 -59 20.5t-22 55.5 q0 36 22 57.5t59 21.5t59 -21.5t22 -57.5q0 -35 -22 -55.5t-59 -20.5z" />
<glyph unicode="&#x152;" horiz-adv-x="1060" d="M30 337q0 70 26.5 136.5t74.5 120.5t124 86.5t168 32.5q37 0 104.5 -6.5t79.5 -6.5h324l84 5l-32 -193h-44q2 41 -3.5 65.5t-20.5 38t-35.5 17.5t-54.5 4h-105l-13 -13v-234h165l8 60l47 7v-210h-58v80h-149l-13 -14v-191q0 -14 -1.5 -29t-2.5 -22l-2 -8h136q25 0 39.5 1 t29 6t23 11.5t20 21.5t20.5 32t23 48h44l-38 -183h-344q-10 0 -122 -6.5t-146 -6.5q-86 0 -155.5 31t-112 81.5t-65.5 111.5t-23 126zM214 373q0 -63 13.5 -120.5t40 -105t70 -75.5t98.5 -28q9 0 22 1.5t33 6.5t33.5 18t13.5 32v456v14.5v17.5t-2 16t-6.5 16.5t-12.5 13.5 t-20 11.5t-30 6.5t-42 3q-54 0 -95.5 -22.5t-66 -62.5t-37 -90t-12.5 -109z" />
<glyph unicode="&#x153;" horiz-adv-x="848" d="M22 231q0 48 16.5 93.5t48 84t86 62t123.5 23.5q109 0 174 -76q71 76 164 76q81 0 134.5 -48t56.5 -147q-60 -21 -81 -24l-200 -30l-8 -14q11 -60 49.5 -97t108.5 -37q19 0 38.5 3.5t33 9t24.5 11t16 9.5l6 3l13 -35q-2 -5 -7 -12.5t-23 -26.5t-39.5 -33.5t-58.5 -26.5 t-79 -12q-99 0 -156 89q-67 -89 -177 -89q-117 0 -190 67.5t-73 176.5zM195 260q0 -54 10.5 -102t36 -83t60.5 -35q84 0 84 176q0 38 -5 75t-15.5 72t-31.5 56.5t-49 21.5q-44 0 -67 -52t-23 -129zM609 437q-35 0 -54.5 -39t-22.5 -99l143 18q0 5 -0.5 13t-4 28.5t-10 36.5 t-20 29t-31.5 13z" />
<glyph unicode="&#x178;" horiz-adv-x="618" d="M161 -3v42q32 4 49.5 22.5t17.5 47.5v201l-188 310q-11 18 -23.5 29.5t-19.5 13.5l-7 3v34h53q49 0 92 1t62 2l19 2l4 -5q-1 -4 -3.5 -12t-2.5 -28t9 -35l107 -187q7 -13 28 -58l133 221q8 14 9 27t-12 23.5t-39 14.5v34h178l6 -23q-23 -11 -52 -57l-185 -293h1v-218 q0 -14 -1.5 -29t-2.5 -22l-1 -8l86 -9l-4 -38zM102 835q0 36 22 56.5t60 20.5q36 0 59 -20.5t23 -56.5q0 -35 -23 -56t-59 -21q-37 0 -59.5 21t-22.5 56zM378 835q0 36 22 56.5t59 20.5t59.5 -20.5t22.5 -56.5q0 -35 -22.5 -56t-59.5 -21t-59 21t-22 56z" />
<glyph unicode="&#x2c6;" horiz-adv-x="525" d="M101 559l130 185h64l127 -185l-43 -31l-117 111l-116 -111z" />
<glyph unicode="&#x2dc;" horiz-adv-x="525" d="M90 582q0 3 -0.5 9t-1 22.5t1.5 31.5t9 33.5t18 31.5t30.5 22t45.5 9q25 0 47.5 -11.5t36 -25.5t30 -25.5t30.5 -11.5q17 0 29 7t16.5 16.5t6.5 19.5t2 17v7h54q1 -3 1.5 -9t0 -22.5t-2.5 -32t-9.5 -34t-18.5 -31.5t-31.5 -22.5t-47.5 -9.5q-25 0 -46.5 12t-34 26 t-28 25.5t-30.5 11.5q-17 0 -29 -7t-17 -16.5t-7 -19.5t-2 -16l1 -7h-54z" />
<glyph unicode="&#x2000;" horiz-adv-x="460" />
<glyph unicode="&#x2001;" horiz-adv-x="921" />
<glyph unicode="&#x2002;" horiz-adv-x="460" />
<glyph unicode="&#x2003;" horiz-adv-x="921" />
<glyph unicode="&#x2004;" horiz-adv-x="307" />
<glyph unicode="&#x2005;" horiz-adv-x="230" />
<glyph unicode="&#x2006;" horiz-adv-x="153" />
<glyph unicode="&#x2007;" horiz-adv-x="153" />
<glyph unicode="&#x2008;" horiz-adv-x="115" />
<glyph unicode="&#x2009;" horiz-adv-x="184" />
<glyph unicode="&#x200a;" horiz-adv-x="51" />
<glyph unicode="&#x2010;" horiz-adv-x="398" d="M50 225v92h299v-92h-299z" />
<glyph unicode="&#x2011;" horiz-adv-x="398" d="M50 225v92h299v-92h-299z" />
<glyph unicode="&#x2012;" horiz-adv-x="398" d="M50 225v92h299v-92h-299z" />
<glyph unicode="&#x2013;" horiz-adv-x="533" d="M51 229v84h431v-84h-431z" />
<glyph unicode="&#x2014;" horiz-adv-x="942" d="M51 229v84h840v-84h-840z" />
<glyph unicode="&#x2018;" horiz-adv-x="225" d="M28 558q0 60 38.5 112.5t102.5 107.5l32 -39q-37 -40 -55.5 -68.5t-18.5 -56.5q0 -52 76 -89v-56l-109 -57q-66 75 -66 146z" />
<glyph unicode="&#x2019;" horiz-adv-x="224" d="M32 664v55l108 58q66 -75 66 -146q0 -60 -38.5 -113t-102.5 -107l-31 38q36 41 54.5 69.5t18.5 55.5q0 51 -75 90z" />
<glyph unicode="&#x201a;" horiz-adv-x="246" d="M37 67v55l107 58q67 -77 67 -146q0 -60 -38.5 -112.5t-102.5 -107.5l-31 38q36 40 54.5 69t18.5 56q0 52 -75 90z" />
<glyph unicode="&#x201c;" horiz-adv-x="442" d="M245 558q0 31 11.5 62t34 60t43.5 50.5t51 47.5l32 -39q-37 -40 -55.5 -68.5t-18.5 -56.5q0 -52 76 -89v-56l-107 -57q-67 76 -67 146zM28 558q0 60 38.5 112.5t102.5 107.5l32 -39q-37 -40 -55.5 -68.5t-18.5 -56.5q0 -52 76 -89v-56l-109 -57q-66 75 -66 146z" />
<glyph unicode="&#x201d;" horiz-adv-x="442" d="M32 664v55l108 58q66 -75 66 -146q0 -60 -38.5 -113t-102.5 -107l-31 38q36 41 54.5 69.5t18.5 55.5q0 51 -75 90zM249 664v55l107 58q66 -75 66 -146q0 -60 -38 -113t-102 -107l-31 38q36 41 54 69.5t18 55.5q0 52 -74 90z" />
<glyph unicode="&#x201e;" horiz-adv-x="464" d="M37 67v55l107 58q67 -77 67 -146q0 -60 -38.5 -112.5t-102.5 -107.5l-31 38q36 40 54.5 69t18.5 56q0 52 -75 90zM254 67v55l107 58q67 -77 67 -146q0 -60 -38.5 -112.5t-101.5 -107.5l-32 38q37 40 55.5 69t18.5 56q0 52 -76 90z" />
<glyph unicode="&#x2022;" horiz-adv-x="436" d="M218 101q-71 0 -120 48t-49 119.5t49 120t120 48.5t119.5 -48.5t48.5 -120t-48.5 -119.5t-119.5 -48z" />
<glyph unicode="&#x2026;" horiz-adv-x="857" d="M39 79q0 38 26.5 65.5t64.5 27.5q39 0 66 -27.5t27 -65.5t-27 -65t-66 -27q-37 0 -64 27.5t-27 64.5zM337 79q0 38 27 65.5t64 27.5q39 0 66.5 -27.5t27.5 -65.5q0 -37 -27.5 -64.5t-66.5 -27.5q-37 0 -64 27.5t-27 64.5zM635 79q0 38 27 65.5t65 27.5t65.5 -27.5 t27.5 -65.5q0 -37 -27.5 -64.5t-65.5 -27.5q-37 0 -64.5 27.5t-27.5 64.5z" />
<glyph unicode="&#x202f;" horiz-adv-x="184" />
<glyph unicode="&#x2039;" horiz-adv-x="320" d="M22 265v4q14 10 37 32.5t128 129.5q38 39 61 63l42 -11l-121 -216q12 -19 121 -215l-42 -10q-141 144 -174.5 177t-51.5 46z" />
<glyph unicode="&#x203a;" horiz-adv-x="319" d="M30 52l121 215q-12 18 -121 216l42 11q22 -23 58 -60q107 -109 130 -132t37 -33v-4q-18 -13 -51.5 -46.5t-173.5 -176.5z" />
<glyph unicode="&#x205f;" horiz-adv-x="230" />
<glyph unicode="&#x20ac;" horiz-adv-x="582" d="M33 208v50h52v22q0 28 2 41h-54v51h64q25 100 98.5 165t185.5 65q38 0 81 -9t67 -17l24 -9l-37 -124h-38q-3 50 -29 80t-62 30q-58 0 -90.5 -49t-41.5 -132h241l-15 -51h-228v-6q0 -33 4 -57h204l-15 -50h-178q20 -64 61.5 -101t98.5 -37q21 0 47.5 6.5t42.5 13.5l16 7 l17 -35q-2 -3 -7.5 -8t-23 -18t-37.5 -22.5t-51.5 -18t-65.5 -8.5q-114 0 -184 62t-90 159h-59z" />
<glyph unicode="&#x2122;" horiz-adv-x="822" d="M101 417v31q20 1 30.5 9.5t10.5 28.5v182h-32q-21 0 -33 -12t-26 -49h-28l14 95q20 -2 44 -2h220l48 2l-14 -95h-27q0 36 -10.5 48.5t-36.5 12.5h-35v-192l-2 -23l52 -5l-1 -29zM354 417v31q29 2 30 24l9 179q0 15 -4.5 20.5t-22.5 10.5v18h38l100 2l3 -2q6 -19 14 -38 l31 -89l9 -29l47 127l10 29h13l109 2l2 -2q-2 -2 -4.5 -6t-6.5 -17.5t-2 -29.5l9 -171l-1 -27l46 -1l-1 -29l-171 -2v31q22 1 32 8.5t9 25.5l-7 172l-90 -236l-37 4l-84 233l-8 -183l-3 -23l48 -1l-2 -29z" />
<glyph unicode="&#x25fc;" horiz-adv-x="482" d="M0 483h483v-483h-483v483z" />
</font>
</defs>
</svg>
